<svg id="Layer_1" data-name="Layer 1" xmlns="http://www.w3.org/2000/svg" xmlns:xlink="http://www.w3.org/1999/xlink" viewBox="0 0 105.36 36.59"><defs><style>.cls-1,.cls-2,.cls-3,.cls-8{fill:none;}.cls-1,.cls-2{clip-rule:evenodd;}.cls-2{clip-path:url(#clip-path);}.cls-4{clip-path:url(#clip-path-2);}.cls-5{clip-path:url(#clip-path-3);}.cls-6,.cls-7{fill:#074866;}.cls-7{font-size:20px;font-family:Rubik-Regular, Rubik;}.cls-8{stroke:#064866;stroke-miterlimit:10;}</style><clipPath id="clip-path"><polygon class="cls-1" points="8 34.15 35.22 34.15 35.22 6.93 8 6.93 8 34.15 8 34.15"/></clipPath><clipPath id="clip-path-2" transform="translate(-0.54 -2.96)"><polygon class="cls-2" points="8 6.93 35.22 6.93 35.22 34.15 8 34.15 8 6.93 8 6.93"/></clipPath><clipPath id="clip-path-3" transform="translate(-0.54 -2.96)"><polygon class="cls-3" points="8 34.15 35.22 34.15 35.22 6.93 8 6.93 8 34.15 8 34.15"/></clipPath></defs><title>נגישות חדש</title><g class="cls-4"><g class="cls-5"><path class="cls-6" d="M20.75,10.86a2.24,2.24,0,1,1-2.24-2.25,2.24,2.24,0,0,1,2.24,2.25Z" transform="translate(-0.54 -2.96)"/><path class="cls-6" d="M26.1,26.35a6.44,6.44,0,0,1-12.63-1.77v-.39L12.79,22a7.71,7.71,0,0,0-.45,2.54,7.57,7.57,0,0,0,14.49,3.06l-.73-1.26Z" transform="translate(-0.54 -2.96)"/><path class="cls-6" d="M30.41,27.1l-3.36-5.88a1.11,1.11,0,0,0-1-.56H21.56L21,15.51a2.22,2.22,0,0,0-2.6-1.82,2.1,2.1,0,0,0-.76.28L13.19,16.6a1.13,1.13,0,0,0-.51,1.29l1.4,4.48a1.1,1.1,0,0,0,1.07.78,1.26,1.26,0,0,0,.33,0,1.11,1.11,0,0,0,.73-1.4l-1.15-3.64,1.65-1,.7,3.95a2.25,2.25,0,0,0,2.22,1.85h5.8l3,5.35a1.1,1.1,0,0,0,1,.56,1.19,1.19,0,0,0,.56-.14,1.14,1.14,0,0,0,.42-1.54Z" transform="translate(-0.54 -2.96)"/></g></g><text class="cls-7" transform="translate(34.68 23.56)">נגישות</text><rect class="cls-8" x="0.5" y="0.5" width="96.93" height="35.59" rx="12"/></svg>