<svg id="Layer_1" data-name="Layer 1" xmlns="http://www.w3.org/2000/svg" xmlns:xlink="http://www.w3.org/1999/xlink" viewBox="0 0 36.75 28.11"><defs><style>.cls-1,.cls-2,.cls-3,.cls-4,.cls-8{fill:none;}.cls-1,.cls-2{clip-rule:evenodd;}.cls-2{clip-path:url(#clip-path);}.cls-4{fill-rule:evenodd;}.cls-5{clip-path:url(#clip-path-3);}.cls-6{clip-path:url(#clip-path-4);}.cls-7{fill:#074866;}.cls-8{stroke:#074866;stroke-width:0.58px;}.cls-9{clip-path:url(#clip-path-5);}.cls-10{clip-path:url(#clip-path-6);}.cls-11{clip-path:url(#clip-path-7);}</style><clipPath id="clip-path"><polygon class="cls-1" points="-11.19 49.21 53.85 49.21 53.85 -17.87 -11.19 -17.87 -11.19 49.21 -11.19 49.21"/></clipPath><clipPath id="clip-path-3" transform="translate(-2.58 -0.91)"><polygon class="cls-2" points="-10.95 -6.71 53.85 -6.71 53.85 49.21 -10.95 49.21 -10.95 -6.71 -10.95 -6.71"/></clipPath><clipPath id="clip-path-4" transform="translate(-2.58 -0.91)"><polygon class="cls-3" points="-10.95 49.21 53.85 49.21 53.85 -6.71 -10.95 -6.71 -10.95 49.21 -10.95 49.21"/></clipPath><clipPath id="clip-path-5" transform="translate(-2.58 -0.91)"><polygon class="cls-1" points="-11.19 49.21 53.85 49.21 53.85 -17.87 -11.19 -17.87 -11.19 49.21 -11.19 49.21"/></clipPath><clipPath id="clip-path-6" transform="translate(-2.58 -0.91)"><polygon class="cls-2" points="-11.19 -17.87 53.62 -17.87 53.62 38.05 -11.19 38.05 -11.19 -17.87 -11.19 -17.87"/></clipPath><clipPath id="clip-path-7" transform="translate(-2.58 -0.91)"><polygon class="cls-3" points="-11.19 38.05 53.62 38.05 53.62 -17.87 -11.19 -17.87 -11.19 38.05 -11.19 38.05"/></clipPath></defs><title>Arrow</title><g class="cls-5"><g class="cls-6"><polygon class="cls-7" points="18.5 26.1 1.62 11.54 0.68 12.35 18.5 27.73 36.31 12.35 35.37 11.54 18.5 26.1 18.5 26.1 18.5 26.1"/><polygon class="cls-8" points="18.5 26.1 1.62 11.54 0.68 12.35 18.5 27.73 36.31 12.35 35.37 11.54 18.5 26.1 18.5 26.1 18.5 26.1"/></g></g><g class="cls-9"><g class="cls-10"><g class="cls-11"><polygon class="cls-7" points="18.25 14.94 1.38 0.38 0.44 1.19 18.25 16.57 36.07 1.19 35.13 0.38 18.25 14.94 18.25 14.94 18.25 14.94"/><polygon class="cls-8" points="18.25 14.94 1.38 0.38 0.44 1.19 18.25 16.57 36.07 1.19 35.13 0.38 18.25 14.94 18.25 14.94 18.25 14.94"/></g></g></g></svg>