<?xml version="1.0" encoding="utf-8"?>
<!-- Generator: Adobe Illustrator 23.0.1, SVG Export Plug-In . SVG Version: 6.00 Build 0)  -->
<svg version="1.1" id="Layer_1" xmlns="http://www.w3.org/2000/svg" xmlns:xlink="http://www.w3.org/1999/xlink" x="0px" y="0px"
	 viewBox="0 0 113.4 113.4" style="enable-background:new 0 0 113.4 113.4;" xml:space="preserve">
<style type="text/css">
	.st0{fill:#F0B81C;}
	.st1{fill:#FFFEF4;}
</style>
<g>
	<g>
		<path class="st0" d="M8.3,51.2c-0.1,0-0.1,0.1-0.2,0l-2.6-0.5c-0.4-0.1-0.7,0.1-0.8,0.5l-0.4,2.3c0,0.1,0,0.1-0.1,0.2
			c-0.1,0-0.1,0.1-0.2,0l-1.1-0.2c-0.1,0-0.1,0-0.2-0.1c0-0.1-0.1-0.1,0-0.2l0.4-2.3C3.3,50,3.5,49.4,4,49.1c0.4-0.4,1-0.5,1.8-0.3
			l2.6,0.5c0.1,0,0.1,0,0.2,0.1c0,0.1,0.1,0.1,0,0.2l-0.3,1.5C8.4,51.1,8.4,51.2,8.3,51.2z M7.8,54.4c-0.1,0-0.1,0.1-0.2,0L5.3,54
			c-0.1,0-0.1,0-0.2-0.1c0-0.1-0.1-0.1,0-0.2l0.3-1.5c0-0.1,0-0.1,0.1-0.2c0.1,0,0.1-0.1,0.2,0L8,52.4c0.1,0,0.1,0,0.2,0.1
			c0,0.1,0.1,0.1,0,0.2l-0.3,1.5C7.9,54.3,7.8,54.4,7.8,54.4z"/>
		<path class="st0" d="M7.2,43.4c0.3,0.3,0.5,0.6,0.6,1l0.8-0.3c0,0,0,0,0.1,0h0.1h0.1l1,0.3c0.1,0,0.1,0.1,0.1,0.1
			c0,0.1,0,0.1,0,0.2l-1.1,3.8c0,0.1-0.1,0.1-0.1,0.1c-0.1,0-0.1,0-0.2,0l-1.1-0.3c-0.1,0-0.1-0.1-0.1-0.1c0-0.1,0-0.1,0-0.2
			l0.5-1.8l-3.8,1.5c-0.1,0-0.1,0-0.1,0c-0.1,0-0.1,0-0.1-0.1v-0.1L4.3,46c0-0.1,0.1-0.1,0.1-0.2c0,0,0.1-0.1,0.2-0.1l1.6-0.6
			C6.1,45,6,44.9,5.9,44.8c-0.1-0.1-0.3-0.1-0.5-0.2l-0.3-0.1c-0.1,0-0.1-0.1-0.2-0.1c0-0.1,0-0.1,0-0.2l0.4-1.3
			c0-0.1,0.1-0.1,0.1-0.1c0.1,0,0.1,0,0.2,0L6.3,43C6.6,43,6.9,43.2,7.2,43.4z"/>
		<path class="st0" d="M8.5,42.6c-0.1,0-0.1,0-0.2,0L6,41.7c-0.1,0-0.1-0.1-0.1-0.1c0-0.1,0-0.1,0-0.2l0.6-1.5
			c0-0.1,0.1-0.1,0.1-0.1c0.1,0,0.1,0,0.2,0l2.3,0.9c0.1,0,0.1,0.1,0.1,0.1s0,0.1,0,0.2L8.5,42.6C8.6,42.5,8.6,42.6,8.5,42.6z"/>
		<path class="st0" d="M11.4,40.9c-0.1,0-0.1,0-0.2,0l-1-0.5c-0.1,0-0.1-0.1-0.1-0.1s0-0.1,0-0.2l0.9-1.8l-1.2-0.6
			c-0.4-0.2-0.7-0.1-0.9,0.3l-0.5,1.1c0,0.1-0.1,0.1-0.1,0.1s-0.1,0-0.2,0l-1-0.5C7,38.7,7,38.6,7,38.6c0-0.1,0-0.1,0-0.2l0.6-1.2
			c0.4-0.8,0.8-1.3,1.3-1.6c0.5-0.3,1.1-0.2,1.9,0.1l1.2,0.5l0.1-0.3c0-0.1,0.1-0.1,0.1-0.1s0.1,0,0.2,0l1,0.5
			c0.1,0,0.1,0.1,0.1,0.1c0,0.1,0,0.1,0,0.2l-1.9,4C11.5,40.8,11.5,40.9,11.4,40.9z"/>
		<path class="st0" d="M15.4,33.3c-0.1,0-0.1,0-0.2,0l-2.3-1.4c-0.4-0.2-0.7-0.2-0.9,0.2l-1.2,2c0,0.1-0.1,0.1-0.1,0.1
			c-0.1,0-0.1,0-0.2,0l-0.9-0.6c-0.1,0-0.1-0.1-0.1-0.1s0-0.1,0-0.2l1.2-2c0.4-0.7,0.9-1.2,1.5-1.4c0.5-0.2,1.2-0.1,1.8,0.3l2.2,1.4
			c0.1,0,0.1,0.1,0.1,0.2s0,0.1,0,0.2L15.4,33.3C15.5,33.2,15.5,33.3,15.4,33.3z M13.7,36c-0.1,0-0.1,0-0.2,0l-2-1.2
			c-0.1,0-0.1-0.1-0.1-0.2s0-0.1,0-0.2l0.8-1.3c0-0.1,0.1-0.1,0.1-0.1c0.1,0,0.1,0,0.2,0l2,1.2c0.1,0,0.1,0.1,0.1,0.1
			c0,0.1,0,0.1,0,0.2l-0.8,1.3C13.9,36,13.8,36,13.7,36z"/>
		<path class="st0" d="M16.6,24.1c0.5,0,1.1,0.2,1.6,0.6c0.4,0.3,0.7,0.7,0.9,1.1c0.2,0.4,0.2,0.9,0.2,1.4s-0.1,0.9-0.3,1.4
			l-0.2,0.3c0,0.1-0.1,0.1-0.2,0.1s-0.2,0-0.2-0.1l-1-0.8c-0.1,0-0.1-0.1-0.1-0.2s0-0.1,0-0.2l0.1-0.3c0.1-0.4,0-0.8-0.4-1.1
			c-0.2-0.1-0.3-0.2-0.5-0.2c-0.1,0-0.3,0.1-0.4,0.3l-1,1.3c0,0.1-0.1,0.1-0.2,0.1s-0.1,0-0.2-0.1l-1.9-1.5c-0.1,0-0.1-0.1-0.1-0.2
			s0-0.1,0.1-0.2l0.9-1.1c0-0.1,0.1-0.1,0.2-0.1s0.1,0,0.2,0.1l0.8,0.6l0.3-0.4C15.5,24.4,16,24.1,16.6,24.1z"/>
		<path class="st0" d="M20.8,18.9c0.1,0,0.1,0,0.2,0.1l2,1.9c0.5,0.4,0.7,1,0.6,1.5c0,0.6-0.3,1.2-0.9,1.9l-1.5,2.1
			c0,0.1-0.1,0.1-0.2,0.1s-0.1,0-0.2-0.1L20,25.6c0,0-0.1-0.1-0.1-0.2s0-0.1,0.1-0.2l0.5-0.7l-3.2-1.8c-0.1,0-0.1-0.1-0.2-0.1
			L17,22.5c0-0.1,0-0.1,0-0.1l1.2-1.2l0.1-0.1h0.1l2.9,1.8c0.1-0.2,0.1-0.4,0-0.6s-0.2-0.4-0.4-0.6l-1.6-1.5c0,0-0.1-0.1-0.1-0.2
			s0-0.1,0.1-0.2l1.1-1.1C20.6,18.9,20.7,18.9,20.8,18.9z"/>
		<path class="st0" d="M27.5,13.9c0.6,0,1.1,0.3,1.6,0.9l1.6,2.1c0,0.1,0.1,0.1,0,0.2c0,0.1,0,0.1-0.1,0.2l-1.2,0.9
			c-0.1,0-0.1,0.1-0.2,0.1s-0.1,0-0.2-0.1l-1.6-2.1c-0.3-0.4-0.6-0.4-0.9-0.1l-0.4,0.3c0.1,0.2,0.3,0.5,0.5,0.9l1.5,1.8
			c0,0.1,0.1,0.1,0,0.2c0,0.1,0,0.1-0.1,0.2l-1.9,1.4c-0.1,0-0.1,0.1-0.2,0c-0.1,0-0.1,0-0.2-0.1l-0.6-0.8c0-0.1-0.1-0.1,0-0.2
			c0-0.1,0-0.1,0.1-0.2l0.6-0.5l-0.7-0.9c-0.2-0.3-0.4-0.6-0.5-0.9l-0.5,0.3c-0.1,0-0.1,0.1-0.2,0s-0.1,0-0.2-0.1L23,16.5
			c0-0.1-0.1-0.1,0-0.2c0-0.1,0-0.1,0.1-0.2l2.3-1.8C26.3,14.2,27,13.9,27.5,13.9z"/>
		<path class="st0" d="M34.4,14.8c0,0.1,0,0.1,0,0.2s-0.1,0.1-0.1,0.2l-2.7,1.7c-0.1,0-0.1,0-0.2,0s-0.1-0.1-0.2-0.1l-0.6-0.9
			c0-0.1,0-0.1,0-0.2s0.1-0.1,0.1-0.2l1.1-0.7L31,13.6c-0.1-0.2-0.3-0.3-0.4-0.4s-0.3,0-0.5,0.1l-0.4,0.3c-0.1,0-0.1,0-0.2,0
			s-0.1-0.1-0.2-0.1l-0.6-0.9c0-0.1,0-0.1,0-0.2s0.1-0.1,0.1-0.2l0.5-0.3c0.8-0.5,1.4-0.7,2-0.6s1.1,0.4,1.5,1.1L34.4,14.8z"/>
		<path class="st0" d="M33.9,12.8C33.8,12.8,33.8,12.7,33.9,12.8l-1.3-2.3c0-0.1,0-0.1,0-0.2s0.1-0.1,0.1-0.1l1.4-0.8
			c0.1,0,0.1,0,0.2,0s0.1,0.1,0.1,0.1l1.2,2.2c0,0.1,0,0.1,0,0.2S35.5,12,35.5,12l-1.4,0.8C34.1,12.8,34,12.8,33.9,12.8z"/>
		<path class="st0" d="M36.6,11.4C36.5,11.4,36.5,11.3,36.6,11.4L35.4,9c0-0.1,0-0.1,0-0.2s0.1-0.1,0.1-0.1L37,8c0.1,0,0.1,0,0.2,0
			s0.1,0.1,0.1,0.1l1.1,2.3c0,0.1,0,0.1,0,0.2s-0.1,0.1-0.1,0.1l-1.5,0.7C36.7,11.4,36.6,11.4,36.6,11.4z"/>
		<path class="st0" d="M43.2,10.8c0,0.1,0,0.1,0,0.2s-0.1,0.1-0.1,0.1l-3,1.2c-0.1,0-0.1,0-0.2,0s-0.1-0.1-0.1-0.1l-0.4-1
			c0-0.1,0-0.1,0-0.2s0.1-0.1,0.1-0.1l1.2-0.5l-0.6-1.3c-0.1-0.2-0.2-0.4-0.3-0.4c-0.1-0.1-0.3,0-0.5,0l-0.5,0.2c-0.1,0-0.1,0-0.2,0
			s-0.1-0.1-0.1-0.1l-0.4-1c0-0.1,0-0.1,0-0.2s0.1-0.1,0.1-0.1l0.5-0.2c0.8-0.3,1.5-0.4,2.1-0.2c0.5,0.2,1,0.6,1.3,1.4L43.2,10.8z"
			/>
		<path class="st0" d="M47.4,4.5c0.1,0,0.1,0.1,0.1,0.1l0.8,2.7c0.2,0.6,0.1,1.2-0.2,1.6s-0.9,0.9-1.7,1.2l-2.3,1.1
			c-0.1,0-0.1,0-0.2,0c-0.1,0-0.1-0.1-0.1-0.2l-0.3-1.1c0-0.1,0-0.1,0-0.2s0.1-0.1,0.1-0.1l0.8-0.4l-1.9-3.1C42.4,6,42.4,6,42.4,5.9
			V5.8l0.1-0.1l1.6-0.5c0.1,0,0.1,0,0.1,0s0.1,0,0.1,0.1l1.6,3c0.2-0.1,0.3-0.3,0.3-0.5c0-0.2,0-0.4-0.1-0.7L45.5,5
			c0-0.1,0-0.1,0-0.2s0.1-0.1,0.1-0.1l1.5-0.4C47.3,4.5,47.4,4.5,47.4,4.5z"/>
		<path class="st0" d="M53.8,3.8c0.5,0.3,0.7,0.8,0.9,1.6l0.4,2.7c0,0.1,0,0.1,0,0.2S55,8.4,54.9,8.4l-2.5,0.4c-0.1,0-0.1,0-0.2,0
			c-0.1,0-0.1-0.1-0.1-0.2l-0.2-1.1c0-0.1,0-0.1,0-0.2s0.1-0.1,0.2-0.1l0.8-0.1l-0.2-1.3c0-0.2-0.1-0.4-0.2-0.4
			c-0.1-0.1-0.2-0.1-0.4-0.1l-0.5,0.1l-0.3,3.3c0,0.1,0,0.1,0,0.2S51.2,9,51.1,9l-1.4,0.2c-0.1,0-0.1,0-0.2,0S49.4,9.1,49.4,9
			l0.4-3.3l-0.7,0.1c-0.1,0-0.1,0-0.2,0s-0.1-0.1-0.1-0.2l-0.2-1.2c0-0.1,0-0.1,0-0.2s0.1-0.1,0.2-0.1l3.3-0.5
			C52.7,3.5,53.3,3.6,53.8,3.8z"/>
		<path class="st0" d="M60.6,8c0,0-0.1-0.1-0.1-0.2V5.1c0-0.5-0.2-0.7-0.7-0.7h-2.3c-0.1,0-0.1,0-0.2-0.1c0,0-0.1-0.1-0.1-0.2V3
			c0-0.1,0-0.1,0.1-0.2c0,0,0.1-0.1,0.2-0.1h2.3c0.9,0,1.5,0.2,2,0.5s0.7,0.9,0.7,1.7v2.6c0,0.1,0,0.1-0.1,0.2c0,0-0.1,0.1-0.2,0.1
			h-1.5C60.7,8.1,60.7,8,60.6,8z M57.4,8c0,0-0.1-0.1-0.1-0.2V5.4c0-0.1,0-0.1,0.1-0.2s0.1-0.1,0.2-0.1h1.5c0.1,0,0.1,0,0.2,0.1
			c0,0,0.1,0.1,0.1,0.2v2.4c0,0.1,0,0.1-0.1,0.2c-0.1,0.1-0.1,0.1-0.2,0.1h-1.5C57.5,8.1,57.4,8.1,57.4,8z"/>
		<path class="st0" d="M67.9,3.4c0,0.1,0.1,0.1,0.1,0.2l-0.1,1.1c0,0.1,0,0.1-0.1,0.2c0,0-0.1,0.1-0.2,0.1h-0.3
			C67.1,5.2,67,5.6,67,6.1l-0.2,2.2c0,0.1,0,0.1-0.1,0.1s-0.1,0-0.2,0L65,8.3c-0.1,0-0.1,0-0.1-0.1V8.1l0.2-2.4c0-0.5,0.1-0.8,0.2-1
			l-1.8-0.1c-0.1,0-0.1,0-0.2-0.1c0-0.1-0.1-0.1-0.1-0.2l0.1-1.1c0-0.1,0-0.1,0.1-0.2s0.1-0.1,0.2-0.1l4.1,0.3
			C67.8,3.3,67.9,3.3,67.9,3.4z"/>
		<path class="st0" d="M68,8.4c0-0.1-0.1-0.1,0-0.2l0.2-1.1c0-0.1,0-0.1,0.1-0.2s0.1-0.1,0.2,0l2,0.4L70.7,6
			c0.1-0.4-0.1-0.7-0.5-0.8L68.9,5c-0.1,0-0.1,0-0.2-0.1c0-0.1-0.1-0.1,0-0.2l0.2-1.1c0-0.1,0-0.1,0.1-0.2s0.1-0.1,0.2,0l1.3,0.2
			C71.4,3.8,72,4,72.4,4.5c0.4,0.4,0.5,1,0.4,1.9l-0.2,1.3l0.3,0.1c0.1,0,0.1,0,0.2,0.1c0,0.1,0.1,0.1,0,0.2l-0.2,1.1
			c0,0.1,0,0.1-0.1,0.2c-0.1,0-0.1,0.1-0.2,0l-4.4-0.8C68.1,8.5,68,8.5,68,8.4z"/>
		<path class="st0" d="M73.3,9.4c0-0.1,0-0.1,0-0.2l1.2-4.5c0-0.1,0.1-0.1,0.1-0.1s0.1,0,0.2,0L76.4,5c0.1,0,0.1,0.1,0.1,0.1
			c0,0.1,0,0.1,0,0.2l-1.2,4.5c0,0.1-0.1,0.1-0.1,0.1c-0.1,0-0.1,0-0.2,0l-1.6-0.4C73.4,9.5,73.4,9.5,73.3,9.4z"/>
		<path class="st0" d="M82.5,7.1c0,0.1,0,0.1,0,0.2l-0.9,2.6c-0.2,0.6-0.6,1-1.1,1.2s-1.3,0.2-2.1,0l-2.5-0.5
			c-0.1,0-0.1-0.1-0.1-0.1c0-0.1,0-0.1,0-0.2l0.4-1.1c0-0.1,0.1-0.1,0.1-0.1c0.1,0,0.1,0,0.2,0l0.9,0.1l0.2-3.7c0-0.1,0-0.2,0-0.2
			s0-0.1,0.1-0.1h0.1l1.6,0.6c0.1,0,0.1,0,0.1,0.1V6l-0.4,3.4c0.2,0,0.4-0.1,0.5-0.2s0.2-0.3,0.3-0.6l0.7-2.1c0-0.1,0.1-0.1,0.1-0.1
			c0.1,0,0.1,0,0.2,0l1.4,0.5C82.5,7,82.5,7,82.5,7.1z"/>
	</g>
	<circle class="st1" cx="60.9" cy="61.6" r="50.6"/>
</g>
</svg>
