<svg width="97" height="96" xmlns="http://www.w3.org/2000/svg" xmlns:xlink="http://www.w3.org/1999/xlink" overflow="hidden"><defs><clipPath id="clip0"><path d="M360 411 457 411 457 507 360 507Z" fill-rule="evenodd" clip-rule="evenodd"/></clipPath><clipPath id="clip1"><path d="M361 411 456 411 456 507 361 507Z" fill-rule="evenodd" clip-rule="evenodd"/></clipPath><clipPath id="clip2"><path d="M361 411 456 411 456 507 361 507Z" fill-rule="evenodd" clip-rule="evenodd"/></clipPath><clipPath id="clip3"><path d="M361 411 456 411 456 507 361 507Z" fill-rule="evenodd" clip-rule="evenodd"/></clipPath></defs><g clip-path="url(#clip0)" transform="translate(-360 -411)"><g clip-path="url(#clip1)"><g clip-path="url(#clip2)"><g clip-path="url(#clip3)"><path d="M60.4348 58.2113C61.4838 56.0737 63.9578 51.2842 66.2239 48.8102 68.0626 46.7383 69.517 44.355 70.5187 41.7723 71.5684 39.034 72.15 36.1387 72.2396 33.2074L72.2396 32.3594C72.2396 18.6961 61.1633 7.61979 47.5 7.61979 33.8367 7.61979 22.7604 18.6961 22.7604 32.3594L22.7604 33.2104C22.8505 36.1411 23.4325 39.0357 24.4823 41.7733 25.4839 44.356 26.9383 46.7393 28.7771 48.8112 31.0432 51.2753 33.5172 56.0767 34.5661 58.2122 34.8855 58.8553 35.5414 59.262 36.2593 59.2622L58.7417 59.2622C59.4598 59.2618 60.1158 58.8547 60.4348 58.2113ZM58.6823 57.282 36.3177 57.282C35.0411 54.6854 32.582 50.0185 30.2605 47.4941 28.5784 45.6012 27.2483 43.4228 26.3328 41.0618 25.3645 38.5407 24.8259 35.8751 24.7396 33.1758L24.7396 32.393C24.7303 19.8228 34.9129 9.62507 47.4832 9.61578 60.0535 9.60649 70.2511 19.7892 70.2604 32.3594L70.2604 33.1797C70.1753 35.8758 69.6385 38.5384 68.6721 41.0568 67.7616 43.4116 66.438 45.585 64.7633 47.4743 62.4091 50.0432 59.9519 54.7052 58.6823 57.282Z" stroke="#084866" stroke-width="2.33333" fill="#084866" transform="matrix(1 0 -0 1.01053 361 411)"/><path d="M58.5418 65.2541 36.7709 65.2541C36.2244 65.2541 35.7814 65.6972 35.7814 66.2437 35.7814 66.7902 36.2244 67.2333 36.7709 67.2333L58.5418 67.2333C59.0883 67.2333 59.5314 66.7902 59.5314 66.2437 59.5314 65.6972 59.0883 65.2541 58.5418 65.2541Z" stroke="#084866" stroke-width="2.33333" fill="#084866" transform="matrix(1 0 -0 1.01053 361 411)"/><path d="M59.5314 74.288C59.5314 73.7415 59.0883 73.2984 58.5418 73.2984L36.7709 73.2984C36.2244 73.2984 35.7814 73.7415 35.7814 74.288 35.7814 74.8346 36.2244 75.2776 36.7709 75.2776L58.5418 75.2776C59.0883 75.2776 59.5314 74.8346 59.5314 74.288Z" stroke="#084866" stroke-width="2.33333" fill="#084866" transform="matrix(1 0 -0 1.01053 361 411)"/><path d="M53.2396 82.2146C53.2833 81.6698 52.8771 81.1927 52.3323 81.149 52.3049 81.1468 52.2775 81.1457 52.25 81.1458L42.7955 81.1458C42.249 81.1441 41.8045 81.5856 41.8027 82.1321 41.8026 82.16 41.8037 82.1879 41.8059 82.2156 42.0553 85.3723 44.8166 87.7292 47.9734 87.4798 50.7836 87.2578 53.0155 85.0258 53.2376 82.2156ZM47.5297 85.5168C45.9874 85.5035 44.6067 84.558 44.0365 83.125L51.0239 83.125C50.4557 84.5596 49.0737 85.5058 47.5307 85.5168Z" stroke="#084866" stroke-width="2.33333" fill="#084866" transform="matrix(1 0 -0 1.01053 361 411)"/></g></g></g></g></svg>