<svg width="94" height="94" xmlns="http://www.w3.org/2000/svg" xmlns:xlink="http://www.w3.org/1999/xlink" overflow="hidden"><defs><clipPath id="clip0"><path d="M246 421 340 421 340 515 246 515Z" fill-rule="evenodd" clip-rule="evenodd"/></clipPath><clipPath id="clip1"><path d="M247 422 340 422 340 515 247 515Z" fill-rule="evenodd" clip-rule="evenodd"/></clipPath><clipPath id="clip2"><path d="M247 422 340 422 340 515 247 515Z" fill-rule="evenodd" clip-rule="evenodd"/></clipPath><clipPath id="clip3"><path d="M247 422 340 422 340 515 247 515Z" fill-rule="evenodd" clip-rule="evenodd"/></clipPath></defs><g clip-path="url(#clip0)" transform="translate(-246 -421)"><g clip-path="url(#clip1)"><g clip-path="url(#clip2)"><g clip-path="url(#clip3)"><path d="M338.063 439.147 338.063 436.252 306.26 471.534 304.165 474.126 295.454 486.375C294.37 487.828 294.509 488.969 294.999 489.79L290.013 496.707C289.804 497.041 289.679 497.419 289.647 497.811 279.066 493.784 258.284 481.353 256.203 475.992 256.088 475.766 256.05 475.507 256.097 475.257 256.982 474.409 264.083 473.729 268.781 473.28 278.142 472.385 282.041 471.874 282.907 470.42 283.492 469.436 284.297 468.086 270.676 458.425 263.759 453.512 255.31 448.066 250.541 445.225 250.081 444.951 249.487 445.101 249.213 445.561 248.939 446.021 249.089 446.615 249.549 446.889 261.017 453.723 279.55 466.503 281.079 469.513 279.62 470.296 273.038 470.927 268.595 471.354 259.235 472.246 255.336 472.757 254.47 474.216 254.048 474.983 254.021 475.907 254.395 476.699 257.045 483.52 281.945 497.624 291.284 500.433 291.374 500.458 291.468 500.47 291.563 500.469 291.628 500.465 291.693 500.454 291.756 500.437 291.862 500.455 291.969 500.465 292.076 500.469 292.566 500.464 293.045 500.316 293.452 500.042L300.08 495.237C300.832 495.695 301.97 495.896 303.456 494.803L316.072 485.986 318.724 483.941 338.063 466.841 338.063 464.255 317.496 482.45 317.093 482.761 307.462 473.131 307.733 472.795ZM292.358 498.443C292.158 498.58 291.889 498.552 291.722 498.376 291.553 498.23 291.508 497.986 291.614 497.789L296.3 491.299 298.662 493.867ZM315.545 483.95 314.931 484.423 302.327 493.223C301.358 493.937 301.068 493.616 300.825 493.355L300.378 492.871 297.456 489.694 297.477 489.667 296.895 489.086C296.546 488.736 296.348 488.42 297.021 487.518L305.706 475.297 306.235 474.642Z" stroke="#084866" stroke-width="2.35869" fill="#084866"/></g></g></g></g></svg>