<?xml version="1.0" encoding="utf-8"?>
<!-- Generator: Adobe Illustrator 23.0.1, SVG Export Plug-In . SVG Version: 6.00 Build 0)  -->
<svg version="1.1" id="Layer_1" xmlns="http://www.w3.org/2000/svg" xmlns:xlink="http://www.w3.org/1999/xlink" x="0px" y="0px"
	 viewBox="0 0 113.4 113.4" style="enable-background:new 0 0 113.4 113.4;" xml:space="preserve">
<style type="text/css">
	.st0{fill:#627533;}
	.st1{fill:#E4E6C2;}
</style>
<g>
	<g>
		<path class="st0" d="M8.3,51.2c-0.1,0-0.1,0.1-0.2,0l-2.6-0.5c-0.4-0.1-0.7,0.1-0.8,0.5l-0.4,2.3c0,0.1,0,0.1-0.1,0.2
			c-0.1,0-0.1,0.1-0.2,0l-1.1-0.2c-0.1,0-0.1,0-0.2-0.1c0-0.1-0.1-0.1,0-0.2l0.4-2.3C3.3,50,3.5,49.4,4,49.1c0.4-0.4,1-0.5,1.8-0.3
			l2.6,0.5c0.1,0,0.1,0,0.2,0.1c0,0.1,0.1,0.1,0,0.2l-0.3,1.5C8.4,51.1,8.4,51.2,8.3,51.2z M7.8,54.4c-0.1,0-0.1,0.1-0.2,0L5.3,54
			c-0.1,0-0.1,0-0.2-0.1c0-0.1-0.1-0.1,0-0.2l0.3-1.5c0-0.1,0-0.1,0.1-0.2c0.1,0,0.1-0.1,0.2,0L8,52.4c0.1,0,0.1,0,0.2,0.1
			c0,0.1,0.1,0.1,0,0.2l-0.3,1.5C7.9,54.3,7.8,54.4,7.8,54.4z"/>
		<path class="st0" d="M6.8,48.1c-0.1,0-0.1,0-0.2,0l-2.4-0.6c-0.1,0-0.1-0.1-0.1-0.1s0-0.1,0-0.2l0.4-1.6c0-0.1,0.1-0.1,0.1-0.1
			c0.1,0,0.1,0,0.2,0l2.4,0.6c0.1,0,0.1,0.1,0.1,0.1s0,0.1,0,0.2L6.8,48.1C6.9,48,6.9,48,6.8,48.1z"/>
		<path class="st0" d="M9.7,45.9c-0.1,0-0.1,0-0.2,0l-4.4-1.4C5,44.5,5,44.4,5,44.4s0-0.1,0-0.2l0.5-1.5c0-0.1,0.1-0.1,0.1-0.1
			c0.1,0,0.1,0,0.2,0l4.4,1.4c0.1,0,0.1,0.1,0.1,0.1s0,0.1,0,0.2L9.7,45.9C9.8,45.8,9.7,45.9,9.7,45.9z"/>
		<path class="st0" d="M10.3,42.5c-0.5,0.2-1.1,0.2-1.8,0l-2.5-1c-0.1,0-0.1-0.1-0.1-0.1c0-0.1,0-0.1,0-0.2L6.8,39
			c0.4-0.8,0.8-1.4,1.3-1.6s1.1-0.2,1.8,0c0.1,0,0.2,0.1,0.4,0.1c0.2,0.1,0.3,0.1,0.4,0.2c0.7,0.3,1.1,0.7,1.3,1.3
			c0.2,0.5,0.1,1.2-0.2,2.1C11.3,41.8,10.9,42.3,10.3,42.5z M10.2,39.9c0-0.1,0-0.2-0.1-0.3c-0.1-0.1-0.2-0.1-0.3-0.2
			c-0.1,0-0.2-0.1-0.3-0.1c-0.1-0.1-0.3-0.1-0.3-0.1c-0.2-0.1-0.4-0.1-0.5,0s-0.3,0.2-0.4,0.5L8,40.4l1.2,0.5c0.2,0.1,0.4,0.1,0.5,0
			s0.3-0.2,0.4-0.5C10.2,40.2,10.2,40,10.2,39.9z"/>
		<path class="st0" d="M14.3,35.1c-0.1,0-0.1,0-0.2,0l-2.3-1.3c-0.4-0.2-0.7-0.1-0.9,0.3l-1.1,2c0,0.1-0.1,0.1-0.1,0.1
			c-0.1,0-0.1,0-0.2,0l-1-0.5c-0.1,0-0.1-0.1-0.1-0.1c0-0.1,0-0.1,0-0.2l1.1-2.1c0.4-0.8,0.9-1.2,1.4-1.5c0.5-0.2,1.1-0.1,1.9,0.3
			l2.3,1.3c0.1,0,0.1,0.1,0.1,0.1c0,0.1,0,0.1,0,0.2L14.5,35C14.4,35.1,14.4,35.1,14.3,35.1z M12.8,37.9c-0.1,0-0.1,0-0.2,0
			l-2.1-1.1c-0.1,0-0.1-0.1-0.1-0.1c0-0.1,0-0.1,0-0.2l0.7-1.3c0-0.1,0.1-0.1,0.1-0.1c0.1,0,0.1,0,0.2,0l2.1,1.1
			c0.1,0,0.1,0.1,0.1,0.1c0,0.1,0,0.1,0,0.2L12.8,37.9C12.9,37.9,12.8,37.9,12.8,37.9z"/>
		<path class="st0" d="M15.1,25.9c0.5,0,1.1,0.1,1.6,0.5c0.4,0.3,0.7,0.7,0.9,1.1s0.3,0.9,0.3,1.4s-0.1,0.9-0.3,1.4l-0.1,0.3
			c0,0.1-0.1,0.1-0.2,0.1s-0.2,0-0.2-0.1l-1-0.7c-0.1,0-0.1-0.1-0.1-0.2s0-0.1,0-0.2l0.1-0.3c0.1-0.4,0-0.8-0.4-1.1
			c-0.2-0.1-0.3-0.2-0.5-0.2c-0.1,0-0.2,0.1-0.4,0.3l-1,1.3c0,0.1-0.1,0.1-0.2,0.1s-0.1,0-0.2,0l-2-1.4c-0.1,0-0.1-0.1-0.1-0.2
			s0-0.1,0-0.2l0.8-1.1c0-0.1,0.1-0.1,0.2-0.1s0.1,0,0.2,0l0.8,0.6l0.3-0.4C14.1,26.3,14.6,25.9,15.1,25.9z"/>
		<path class="st0" d="M19.1,20.5c0.1,0,0.1,0,0.2,0.1l2.1,1.9c0.5,0.4,0.7,0.9,0.7,1.5s-0.3,1.2-0.8,2l-1.4,2.2
			c0,0.1-0.1,0.1-0.2,0.1s-0.1,0-0.2-0.1l-0.8-0.7c0,0-0.1-0.1-0.1-0.2s0-0.1,0.1-0.2l0.5-0.8l-3.3-1.6c-0.1,0-0.2-0.1-0.2-0.1
			l-0.1-0.1c0-0.1,0-0.1,0-0.1l1.1-1.3l0.1-0.1h0.1l3,1.7c0.1-0.2,0.1-0.4,0-0.6s-0.2-0.3-0.4-0.5l-1.6-1.5c0,0-0.1-0.1-0.1-0.2
			s0-0.1,0.1-0.2l1-1.1C19,20.5,19,20.5,19.1,20.5z"/>
		<path class="st0" d="M25.7,15.3c0.6,0,1.1,0.3,1.6,0.9l1.7,2.1c0,0.1,0.1,0.1,0.1,0.2s0,0.1-0.1,0.2l-1.2,1
			c-0.1,0-0.1,0.1-0.2,0.1s-0.1,0-0.2-0.1l-1.7-2c-0.3-0.3-0.6-0.4-0.9-0.1L24.4,18c0.1,0.2,0.3,0.5,0.6,0.8l1.6,1.7
			c0,0.1,0.1,0.1,0.1,0.2s0,0.1-0.1,0.2l-1.8,1.5c-0.1,0-0.1,0.1-0.2,0.1s-0.1,0-0.2-0.1l-0.6-0.8c0-0.1-0.1-0.1-0.1-0.2
			s0-0.1,0.1-0.2l0.6-0.5l-0.7-0.8c-0.2-0.3-0.4-0.6-0.6-0.9l-0.4,0.4c-0.1,0-0.1,0.1-0.2,0.1s-0.1,0-0.2-0.1l-0.7-0.8
			c0-0.1-0.1-0.1-0.1-0.2s0-0.1,0.1-0.2l2.2-1.9C24.5,15.6,25.1,15.3,25.7,15.3z"/>
		<path class="st0" d="M32.5,15.9c0,0.1,0,0.1,0,0.2s0,0.1-0.1,0.2l-2.7,1.8c-0.1,0-0.1,0-0.2,0s-0.1,0-0.2-0.1l-0.6-0.9
			c0-0.1,0-0.1,0-0.2s0-0.1,0.1-0.2L30,16l-0.8-1.2c-0.1-0.2-0.3-0.3-0.4-0.3s-0.3,0-0.5,0.1l-0.4,0.3c-0.1,0-0.1,0-0.2,0
			s-0.1,0-0.2-0.1l-0.6-0.9c0-0.1,0-0.1,0-0.2s0-0.1,0.1-0.2l0.5-0.3c0.8-0.5,1.4-0.7,2-0.7s1.1,0.4,1.6,1.1L32.5,15.9z"/>
		<path class="st0" d="M32,13.9C31.9,13.9,31.9,13.8,32,13.9l-1.4-2.3c0-0.1,0-0.1,0-0.2s0.1-0.1,0.1-0.1l1.4-0.8c0.1,0,0.1,0,0.2,0
			s0.1,0.1,0.1,0.1l1.3,2.2c0,0.1,0,0.1,0,0.2s-0.1,0.1-0.1,0.1l-1.4,0.8C32.1,13.9,32.1,13.9,32,13.9z"/>
		<path class="st0" d="M34.6,12.4C34.5,12.4,34.5,12.3,34.6,12.4l-1.2-2.3c0-0.1,0-0.1,0-0.2s0.1-0.1,0.1-0.1l1.4-0.7
			c0.1,0,0.1,0,0.2,0s0.1,0.1,0.1,0.1l1.1,2.2c0,0.1,0,0.1,0,0.2s-0.1,0.1-0.1,0.1l-1.4,0.7C34.7,12.5,34.6,12.5,34.6,12.4z"/>
		<path class="st0" d="M41.2,11.5c0,0.1,0,0.1,0,0.2s-0.1,0.1-0.1,0.1l-3,1.3c-0.1,0-0.1,0-0.2,0S37.8,13,37.8,13l-0.4-1
			c0-0.1,0-0.1,0-0.2s0.1-0.1,0.1-0.1l1.2-0.5l-0.6-1.3c-0.1-0.2-0.2-0.4-0.4-0.4c-0.1-0.1-0.3,0-0.5,0.1l-0.5,0.2
			c-0.1,0-0.1,0-0.2,0s-0.1-0.1-0.1-0.1l-0.4-1c0-0.1,0-0.1,0-0.2s0.1-0.1,0.1-0.1l0.5-0.2c0.8-0.4,1.5-0.5,2.1-0.3
			c0.5,0.1,1,0.6,1.3,1.3L41.2,11.5z"/>
		<path class="st0" d="M45.2,5.1c0.1,0,0.1,0.1,0.1,0.1l0.9,2.6C46.4,8.4,46.3,9,46,9.5s-0.9,0.9-1.7,1.3L42,12c-0.1,0-0.1,0-0.2,0
			s-0.1-0.1-0.1-0.1l-0.3-1.1c0-0.1,0-0.1,0-0.2s0.1-0.1,0.1-0.1l0.8-0.4l-2-3C40.2,7,40.2,7,40.2,6.9V6.8l0.1-0.1l1.6-0.5
			c0.1,0,0.1,0,0.1,0s0.1,0,0.1,0.1l1.8,3c0.2-0.2,0.3-0.3,0.3-0.5s0-0.4-0.1-0.7L43.4,6c0-0.1,0-0.1,0-0.2s0.1-0.1,0.1-0.1l1.4-0.5
			C45,5,45.1,5.1,45.2,5.1z"/>
		<path class="st0" d="M51.4,4.2c0.5,0.3,0.8,0.8,0.9,1.5l0.5,2.6c0,0.1,0,0.1,0,0.2s-0.1,0.1-0.2,0.1l-2.5,0.5c-0.1,0-0.1,0-0.2,0
			c-0.1,0-0.1-0.1-0.1-0.2l-0.2-1.1c0-0.1,0-0.1,0-0.2s0.1-0.1,0.2-0.1l0.8-0.2L50.3,6c0-0.2-0.1-0.4-0.2-0.4
			c-0.1-0.1-0.3-0.1-0.4-0.1l-0.5,0.1l-0.1,3.3c0,0.1,0,0.1,0,0.2S49,9.2,48.9,9.2l-1.4,0.3c-0.1,0-0.1,0-0.2,0
			c-0.1,0-0.1-0.1-0.1-0.2l0.3-3.4L46.8,6c-0.1,0-0.1,0-0.2,0c-0.1,0-0.1-0.1-0.1-0.2l-0.2-1.2c0-0.1,0-0.1,0-0.2s0.1-0.1,0.2-0.1
			l3.2-0.7C50.4,3.8,51,3.9,51.4,4.2z"/>
		<path class="st0" d="M58.5,8c-0.1,0-0.1-0.1-0.1-0.2l-0.2-2.7c0-0.4-0.3-0.7-0.7-0.6l-2.3,0.1c-0.1,0-0.1,0-0.2-0.1
			c-0.1,0-0.1-0.1-0.1-0.2l-0.1-1.1c0-0.1,0-0.1,0.1-0.2c0-0.1,0.1-0.1,0.2-0.1l2.3-0.1c0.9-0.1,1.5,0.1,2,0.4s0.7,0.9,0.8,1.7
			l0.2,2.6c0,0.1,0,0.1-0.1,0.2s-0.1,0.1-0.2,0.1L58.5,8C58.6,8.1,58.5,8.1,58.5,8z M55.3,8.2c-0.1,0-0.1-0.1-0.1-0.2l-0.1-2.4
			c0-0.1,0-0.1,0.1-0.2c0-0.1,0.1-0.1,0.2-0.1l1.5-0.1c0.1,0,0.1,0,0.2,0.1c0.1,0,0.1,0.1,0.1,0.2l0.1,2.4c0,0.1,0,0.1-0.1,0.2
			c0,0.1-0.1,0.1-0.2,0.1l-1.5,0.1C55.4,8.3,55.3,8.3,55.3,8.2z"/>
		<path class="st0" d="M65.6,3.1c0,0,0.1,0.1,0.1,0.2v1.1c0,0.1,0,0.1-0.1,0.2c0,0-0.1,0.1-0.2,0.1h-0.3c-0.1,0.2-0.2,0.6-0.3,1.1
			L64.7,8c0,0.1,0,0.1-0.1,0.1s-0.1,0.1-0.2,0.1l-1.5-0.1c-0.1,0-0.1,0-0.1-0.1V7.9l0.1-2.4c0-0.5,0.1-0.8,0.2-1l-1.8-0.1
			c-0.1,0-0.1,0-0.2-0.1c0-0.1-0.1-0.1-0.1-0.2V3c0-0.1,0-0.1,0.1-0.2c0,0,0.1-0.1,0.2-0.1l4.1,0.2C65.5,3.1,65.5,3.1,65.6,3.1z"/>
		<path class="st0" d="M65.8,8.2c0-0.1-0.1-0.1,0-0.2l0.1-1.1c0-0.1,0-0.1,0.1-0.2s0.1-0.1,0.2,0l2,0.3l0.2-1.3
			c0.1-0.4-0.1-0.7-0.6-0.8l-1.3-0.2c-0.1,0-0.1,0-0.2-0.1c0-0.1-0.1-0.1,0-0.2l0.1-1.1c0-0.1,0-0.1,0.1-0.2c0.1,0,0.1-0.1,0.2,0
			L68,3.3c0.9,0.1,1.5,0.4,1.9,0.8s0.6,1,0.5,1.8l-0.2,1.3h0.3c0.1,0,0.1,0,0.2,0.1c0,0.1,0.1,0.1,0,0.2l-0.1,1.1
			c0,0.1,0,0.1-0.1,0.2c-0.1,0-0.1,0.1-0.2,0l-4.4-0.6C65.9,8.2,65.9,8.2,65.8,8.2z"/>
		<path class="st0" d="M71.2,9c0-0.1,0-0.1,0-0.2l1-4.6c0-0.1,0-0.1,0.1-0.2c0.1,0,0.1,0,0.2,0l1.6,0.3c0.1,0,0.1,0,0.2,0.1
			s0,0.1,0,0.2l-1,4.6c0,0.1,0,0.1-0.1,0.2c-0.1,0-0.1,0-0.2,0l-1.6-0.3C71.3,9.1,71.2,9,71.2,9z"/>
		<path class="st0" d="M80.3,6.2c0,0.1,0,0.1,0,0.2l-0.8,2.7c-0.2,0.6-0.5,1-1.1,1.3c-0.5,0.2-1.2,0.3-2.1,0.1l-2.5-0.4
			c-0.1,0-0.1,0-0.1-0.1s0-0.1,0-0.2L74,8.7c0-0.1,0.1-0.1,0.1-0.1c0.1,0,0.1,0,0.2,0l0.9,0.1L75.3,5c0-0.1,0-0.2,0-0.2
			s0-0.1,0.1-0.1s0.1,0,0.1,0l1.6,0.5c0.1,0,0.1,0,0.1,0.1v0.1l-0.3,3.4c0.2,0,0.4-0.1,0.5-0.2s0.2-0.3,0.3-0.6l0.6-2.1
			c0-0.1,0.1-0.1,0.1-0.1c0.1,0,0.1,0,0.2,0l1.5,0.4C80.3,6.1,80.3,6.2,80.3,6.2z"/>
	</g>
	<circle class="st1" cx="60.9" cy="61.6" r="50.6"/>
</g>
</svg>
