<svg id="Layer_1" data-name="Layer 1" xmlns="http://www.w3.org/2000/svg" viewBox="0 0 108.84 109.5"><title>soyfact_black</title><path d="M8.3,51.2c-.1,0-.1.1-.2,0l-2.6-.5a.62.62,0,0,0-.8.5l-.4,2.3c0,.1,0,.1-.1.2s-.1.1-.2,0l-1.1-.2c-.1,0-.1,0-.2-.1s-.1-.1,0-.2l.4-2.3c.2-.9.4-1.5.9-1.8a1.79,1.79,0,0,1,1.8-.3l2.6.5c.1,0,.1,0,.2.1s.1.1,0,.2l-.3,1.5C8.4,51.1,8.4,51.2,8.3,51.2Zm-.5,3.2c-.1,0-.1.1-.2,0L5.3,54c-.1,0-.1,0-.2-.1s-.1-.1,0-.2l.3-1.5c0-.1,0-.1.1-.2s.1-.1.2,0l2.3.4c.1,0,.1,0,.2.1s.1.1,0,.2l-.3,1.5A.35.35,0,0,1,7.8,54.4Z" transform="translate(-2.66 -2.7)"/><path d="M6.8,48.1H6.6l-2.4-.6a.1.1,0,0,1-.1-.1v-.2l.4-1.6a.1.1,0,0,1,.1-.1h.2l2.4.6a.1.1,0,0,1,.1.1v.2l-.5,1.7Z" transform="translate(-2.66 -2.7)"/><path d="M9.7,45.9H9.5L5.1,44.5a.1.1,0,0,1-.1-.1v-.2l.5-1.5a.1.1,0,0,1,.1-.1h.2L10.2,44a.1.1,0,0,1,.1.1v.2l-.6,1.6Z" transform="translate(-2.66 -2.7)"/><path d="M10.3,42.5a2.76,2.76,0,0,1-1.8,0L6,41.5a.1.1,0,0,1-.1-.1v-.2L6.8,39a3.13,3.13,0,0,1,1.3-1.6,2.76,2.76,0,0,1,1.8,0c.1,0,.2.1.4.1s.3.1.4.2A2.09,2.09,0,0,1,12,39a3.24,3.24,0,0,1-.2,2.1A3.29,3.29,0,0,1,10.3,42.5Zm-.1-2.6a.37.37,0,0,0-.1-.3c-.1-.1-.2-.1-.3-.2s-.2-.1-.3-.1a.49.49,0,0,0-.3-.1.45.45,0,0,0-.5,0,1.08,1.08,0,0,0-.4.5l-.3.7,1.2.5a.45.45,0,0,0,.5,0,1.22,1.22,0,0,0,.5-1Z" transform="translate(-2.66 -2.7)"/><path d="M14.3,35.1h-.2l-2.3-1.3a.59.59,0,0,0-.9.3l-1.1,2a.1.1,0,0,1-.1.1H9.5l-1-.5a.1.1,0,0,1-.1-.1v-.2l1.1-2.1a3.43,3.43,0,0,1,1.4-1.5,2.31,2.31,0,0,1,1.9.3l2.3,1.3a.1.1,0,0,1,.1.1v.2L14.5,35C14.4,35.1,14.4,35.1,14.3,35.1Zm-1.5,2.8h-.2l-2.1-1.1a.1.1,0,0,1-.1-.1v-.2l.7-1.3a.1.1,0,0,1,.1-.1h.2l2.1,1.1a.1.1,0,0,1,.1.1v.2l-.8,1.4Z" transform="translate(-2.66 -2.7)"/><path d="M15.1,25.9a2.52,2.52,0,0,1,1.6.5,3.13,3.13,0,0,1,.9,1.1,3.19,3.19,0,0,1,.3,1.4,3.53,3.53,0,0,1-.3,1.4l-.1.3c0,.1-.1.1-.2.1s-.2,0-.2-.1l-1-.7c-.1,0-.1-.1-.1-.2v-.2l.1-.3a1,1,0,0,0-.4-1.1c-.2-.1-.3-.2-.5-.2s-.2.1-.4.3l-1,1.3c0,.1-.1.1-.2.1h-.2l-2-1.4c-.1,0-.1-.1-.1-.2v-.2l.8-1.1c0-.1.1-.1.2-.1h.2l.8.6.3-.4A2.43,2.43,0,0,1,15.1,25.9Z" transform="translate(-2.66 -2.7)"/><path d="M19.1,20.5c.1,0,.1,0,.2.1l2.1,1.9a1.8,1.8,0,0,1,.7,1.5,4,4,0,0,1-.8,2l-1.4,2.2c0,.1-.1.1-.2.1s-.1,0-.2-.1l-.8-.7a.35.35,0,0,1-.1-.2c0-.1,0-.1.1-.2l.5-.8-3.3-1.6a.35.35,0,0,1-.2-.1l-.1-.1v-.1l1.1-1.3.1-.1h.1l3,1.7a.64.64,0,0,0,0-.6,1.76,1.76,0,0,0-.4-.5l-1.6-1.5a.35.35,0,0,1-.1-.2c0-.1,0-.1.1-.2l1-1.1C19,20.5,19,20.5,19.1,20.5Z" transform="translate(-2.66 -2.7)"/><path d="M25.7,15.3a2.06,2.06,0,0,1,1.6.9L29,18.3c0,.1.1.1.1.2s0,.1-.1.2l-1.2,1c-.1,0-.1.1-.2.1s-.1,0-.2-.1l-1.7-2c-.3-.3-.6-.4-.9-.1l-.4.4a3.28,3.28,0,0,0,.6.8l1.6,1.7c0,.1.1.1.1.2s0,.1-.1.2l-1.8,1.5c-.1,0-.1.1-.2.1s-.1,0-.2-.1l-.6-.8c0-.1-.1-.1-.1-.2s0-.1.1-.2l.6-.5-.7-.8-.6-.9-.4.4c-.1,0-.1.1-.2.1s-.1,0-.2-.1l-.7-.8c0-.1-.1-.1-.1-.2s0-.1.1-.2l2.2-1.9A2.74,2.74,0,0,1,25.7,15.3Z" transform="translate(-2.66 -2.7)"/><path d="M32.5,15.9v.2c0,.1,0,.1-.1.2l-2.7,1.8h-.2c-.1,0-.1,0-.2-.1l-.6-.9v-.2c0-.1,0-.1.1-.2L30,16l-.8-1.2a.54.54,0,0,0-.4-.3,1.09,1.09,0,0,0-.5.1l-.4.3h-.2c-.1,0-.1,0-.2-.1l-.6-.9v-.2c0-.1,0-.1.1-.2l.5-.3a3.71,3.71,0,0,1,2-.7,2.08,2.08,0,0,1,1.6,1.1Z" transform="translate(-2.66 -2.7)"/><path d="M32,13.9c-.1,0-.1-.1,0,0l-1.4-2.3v-.2a.1.1,0,0,1,.1-.1l1.4-.8h.2a.1.1,0,0,1,.1.1l1.3,2.2V13a.1.1,0,0,1-.1.1l-1.4.8Z" transform="translate(-2.66 -2.7)"/><path d="M34.6,12.4c-.1,0-.1-.1,0,0l-1.2-2.3V9.9a.1.1,0,0,1,.1-.1l1.4-.7h.2a.1.1,0,0,1,.1.1l1.1,2.2v.2a.1.1,0,0,1-.1.1l-1.4.7C34.7,12.5,34.6,12.5,34.6,12.4Z" transform="translate(-2.66 -2.7)"/><path d="M41.2,11.5v.2a.1.1,0,0,1-.1.1l-3,1.3h-.2a.1.1,0,0,1-.1-.1l-.4-1v-.2a.1.1,0,0,1,.1-.1l1.2-.5-.6-1.3c-.1-.2-.2-.4-.4-.4s-.3,0-.5.1l-.5.2h-.2a.1.1,0,0,1-.1-.1l-.4-1V8.5a.1.1,0,0,1,.1-.1l.5-.2a2.73,2.73,0,0,1,2.1-.3A2.07,2.07,0,0,1,40,9.2Z" transform="translate(-2.66 -2.7)"/><path d="M45.2,5.1a.1.1,0,0,1,.1.1l.9,2.6A2,2,0,0,1,46,9.5a4,4,0,0,1-1.7,1.3L42,12h-.2a.1.1,0,0,1-.1-.1l-.3-1.1v-.2a.1.1,0,0,1,.1-.1l.8-.4-2-3c-.1-.1-.1-.1-.1-.2V6.8l.1-.1,1.6-.5H42a.1.1,0,0,1,.1.1l1.8,3c.2-.2.3-.3.3-.5a2,2,0,0,0-.1-.7L43.4,6V5.8a.1.1,0,0,1,.1-.1l1.4-.5C45,5,45.1,5.1,45.2,5.1Z" transform="translate(-2.66 -2.7)"/><path d="M51.4,4.2a2,2,0,0,1,.9,1.5l.5,2.6v.2c0,.1-.1.1-.2.1l-2.5.5h-.2c-.1,0-.1-.1-.1-.2l-.2-1.1V7.6c0-.1.1-.1.2-.1l.8-.2L50.3,6c0-.2-.1-.4-.2-.4a.6.6,0,0,0-.4-.1l-.5.1-.1,3.3v.2c0,.1-.1.1-.2.1l-1.4.3h-.2c-.1,0-.1-.1-.1-.2l.3-3.4-.7.1h-.2c-.1,0-.1-.1-.1-.2l-.2-1.2V4.4c0-.1.1-.1.2-.1l3.2-.7A5.56,5.56,0,0,1,51.4,4.2Z" transform="translate(-2.66 -2.7)"/><path d="M58.5,8c-.1,0-.1-.1-.1-.2l-.2-2.7a.56.56,0,0,0-.7-.6l-2.3.1c-.1,0-.1,0-.2-.1s-.1-.1-.1-.2l-.1-1.1c0-.1,0-.1.1-.2s.1-.1.2-.1l2.3-.1a3,3,0,0,1,2,.4,2.13,2.13,0,0,1,.8,1.7l.2,2.6c0,.1,0,.1-.1.2s-.1.1-.2.1L58.5,8C58.6,8.1,58.5,8.1,58.5,8Zm-3.2.2c-.1,0-.1-.1-.1-.2l-.1-2.4c0-.1,0-.1.1-.2s.1-.1.2-.1l1.5-.1c.1,0,.1,0,.2.1s.1.1.1.2l.1,2.4c0,.1,0,.1-.1.2s-.1.1-.2.1l-1.5.1C55.4,8.3,55.3,8.3,55.3,8.2Z" transform="translate(-2.66 -2.7)"/><path d="M65.6,3.1a.35.35,0,0,1,.1.2V4.4c0,.1,0,.1-.1.2a.35.35,0,0,1-.2.1h-.3a5.31,5.31,0,0,0-.3,1.1L64.7,8c0,.1,0,.1-.1.1s-.1.1-.2.1l-1.5-.1c-.1,0-.1,0-.1-.1V7.9l.1-2.4a2.15,2.15,0,0,1,.2-1l-1.8-.1c-.1,0-.1,0-.2-.1s-.1-.1-.1-.2V3c0-.1,0-.1.1-.2a.35.35,0,0,1,.2-.1l4.1.2C65.5,3.1,65.5,3.1,65.6,3.1Z" transform="translate(-2.66 -2.7)"/><path d="M65.8,8.2c0-.1-.1-.1,0-.2l.1-1.1c0-.1,0-.1.1-.2s.1-.1.2,0l2,.3.2-1.3c.1-.4-.1-.7-.6-.8l-1.3-.2c-.1,0-.1,0-.2-.1s-.1-.1,0-.2l.1-1.1c0-.1,0-.1.1-.2s.1-.1.2,0l1.3.2a3.05,3.05,0,0,1,1.9.8,2.07,2.07,0,0,1,.5,1.8l-.2,1.3h.3c.1,0,.1,0,.2.1s.1.1,0,.2l-.1,1.1c0,.1,0,.1-.1.2s-.1.1-.2,0l-4.4-.6Z" transform="translate(-2.66 -2.7)"/><path d="M71.2,9V8.8l1-4.6c0-.1,0-.1.1-.2h.2l1.6.3c.1,0,.1,0,.2.1s0,.1,0,.2l-1,4.6c0,.1,0,.1-.1.2H73l-1.6-.3A.35.35,0,0,1,71.2,9Z" transform="translate(-2.66 -2.7)"/><path d="M80.3,6.2v.2l-.8,2.7a2,2,0,0,1-1.1,1.3,3.54,3.54,0,0,1-2.1.1l-2.5-.4c-.1,0-.1,0-.1-.1V9.8L74,8.7a.1.1,0,0,1,.1-.1h.2l.9.1L75.3,5V4.8a.1.1,0,0,1,.1-.1h.1l1.6.5c.1,0,.1,0,.1.1v.1l-.3,3.4a.76.76,0,0,0,.5-.2,1.63,1.63,0,0,0,.3-.6l.6-2.1a.1.1,0,0,1,.1-.1h.2l1.5.4C80.3,6.1,80.3,6.2,80.3,6.2Z" transform="translate(-2.66 -2.7)"/><circle cx="58.24" cy="58.9" r="50.6"/></svg>