<svg id="Layer_1" data-name="Layer 1" xmlns="http://www.w3.org/2000/svg" viewBox="0 0 108.84 109.5"><defs><style>.cls-1{fill:#020202;}</style></defs><title>eggfact_black</title><path d="M8.3,51.2c-.1,0-.1.1-.2,0l-2.6-.5a.62.62,0,0,0-.8.5l-.4,2.3c0,.1,0,.1-.1.2s-.1.1-.2,0l-1.1-.2c-.1,0-.1,0-.2-.1s-.1-.1,0-.2l.4-2.3c.2-.9.4-1.5.9-1.8a1.79,1.79,0,0,1,1.8-.3l2.6.5c.1,0,.1,0,.2.1s.1.1,0,.2l-.3,1.5C8.4,51.1,8.4,51.2,8.3,51.2Zm-.5,3.2c-.1,0-.1.1-.2,0L5.3,54c-.1,0-.1,0-.2-.1s-.1-.1,0-.2l.3-1.5c0-.1,0-.1.1-.2s.1-.1.2,0l2.3.4c.1,0,.1,0,.2.1s.1.1,0,.2l-.3,1.5A.35.35,0,0,1,7.8,54.4Z" transform="translate(-2.66 -2.7)"/><path class="cls-1" d="M7.2,43.4a2.07,2.07,0,0,1,.6,1l.8-.3h.3l1,.3a.1.1,0,0,1,.1.1v.2L8.9,48.5a.1.1,0,0,1-.1.1H8.6l-1.1-.3a.1.1,0,0,1-.1-.1V48l.5-1.8L4.1,47.7H4c-.1,0-.1,0-.1-.1v-.1L4.3,46c0-.1.1-.1.1-.2a.35.35,0,0,1,.2-.1l1.6-.6-.3-.3c-.1-.1-.3-.1-.5-.2l-.3-.1c-.1,0-.1-.1-.2-.1v-.2l.4-1.3a.1.1,0,0,1,.1-.1h.2l.7.2A1.8,1.8,0,0,1,7.2,43.4Z" transform="translate(-2.66 -2.7)"/><path class="cls-1" d="M8.5,42.6H8.3L6,41.7a.1.1,0,0,1-.1-.1v-.2l.6-1.5a.1.1,0,0,1,.1-.1h.2l2.3.9a.1.1,0,0,1,.1.1V41l-.7,1.6C8.6,42.5,8.6,42.6,8.5,42.6Z" transform="translate(-2.66 -2.7)"/><path class="cls-1" d="M11.4,40.9h-.2l-1-.5a.1.1,0,0,1-.1-.1v-.2l.9-1.8-1.2-.6a.59.59,0,0,0-.9.3l-.5,1.1a.1.1,0,0,1-.1.1H8.1l-1-.5a.1.1,0,0,1-.1-.1v-.2l.6-1.2a3.63,3.63,0,0,1,1.3-1.6,2.15,2.15,0,0,1,1.9.1l1.2.5.1-.3a.1.1,0,0,1,.1-.1h.2l1,.5a.1.1,0,0,1,.1.1v.2l-1.9,4C11.5,40.8,11.5,40.9,11.4,40.9Z" transform="translate(-2.66 -2.7)"/><path class="cls-1" d="M15.4,33.3h-.2l-2.3-1.4c-.4-.2-.7-.2-.9.2l-1.2,2a.1.1,0,0,1-.1.1h-.2l-.9-.6a.1.1,0,0,1-.1-.1v-.2l1.2-2a2.88,2.88,0,0,1,1.5-1.4,2,2,0,0,1,1.8.3l2.2,1.4c.1,0,.1.1.1.2V32l-.9,1.3C15.5,33.2,15.5,33.3,15.4,33.3ZM13.7,36h-.2l-2-1.2c-.1,0-.1-.1-.1-.2v-.2l.8-1.3a.1.1,0,0,1,.1-.1h.2l2,1.2a.1.1,0,0,1,.1.1v.2l-.8,1.3C13.9,36,13.8,36,13.7,36Z" transform="translate(-2.66 -2.7)"/><path class="cls-1" d="M16.6,24.1a2.66,2.66,0,0,1,1.6.6,3.13,3.13,0,0,1,.9,1.1,3.18,3.18,0,0,1,.2,1.4,3.53,3.53,0,0,1-.3,1.4l-.2.3c0,.1-.1.1-.2.1s-.2,0-.2-.1l-1-.8c-.1,0-.1-.1-.1-.2v-.2l.1-.3a1,1,0,0,0-.4-1.1c-.2-.1-.3-.2-.5-.2a.54.54,0,0,0-.4.3l-1,1.3c0,.1-.1.1-.2.1s-.1,0-.2-.1l-1.9-1.5c-.1,0-.1-.1-.1-.2s0-.1.1-.2l.9-1.1c0-.1.1-.1.2-.1s.1,0,.2.1l.8.6.3-.4A1.6,1.6,0,0,1,16.6,24.1Z" transform="translate(-2.66 -2.7)"/><path class="cls-1" d="M20.8,18.9c.1,0,.1,0,.2.1l2,1.9a1.57,1.57,0,0,1,.6,1.5,3,3,0,0,1-.9,1.9l-1.5,2.1c0,.1-.1.1-.2.1s-.1,0-.2-.1l-.8-.8a.35.35,0,0,1-.1-.2c0-.1,0-.1.1-.2l.5-.7-3.2-1.8c-.1,0-.1-.1-.2-.1l-.1-.1v-.1l1.2-1.2.1-.1h.1l2.9,1.8a.64.64,0,0,0,0-.6,2.09,2.09,0,0,0-.4-.6l-1.6-1.5a.35.35,0,0,1-.1-.2c0-.1,0-.1.1-.2l1.1-1.1C20.6,18.9,20.7,18.9,20.8,18.9Z" transform="translate(-2.66 -2.7)"/><path class="cls-1" d="M27.5,13.9a2.06,2.06,0,0,1,1.6.9l1.6,2.1c0,.1.1.1,0,.2s0,.1-.1.2l-1.2.9c-.1,0-.1.1-.2.1s-.1,0-.2-.1l-1.6-2.1c-.3-.4-.6-.4-.9-.1l-.4.3c.1.2.3.5.5.9L28.1,19c0,.1.1.1,0,.2s0,.1-.1.2l-1.9,1.4c-.1,0-.1.1-.2,0s-.1,0-.2-.1l-.6-.8c0-.1-.1-.1,0-.2s0-.1.1-.2l.6-.5-.7-.9a4.05,4.05,0,0,1-.5-.9l-.5.3c-.1,0-.1.1-.2,0s-.1,0-.2-.1l-.7-.9c0-.1-.1-.1,0-.2s0-.1.1-.2l2.3-1.8C26.3,14.2,27,13.9,27.5,13.9Z" transform="translate(-2.66 -2.7)"/><path class="cls-1" d="M34.4,14.8V15c0,.1-.1.1-.1.2l-2.7,1.7h-.2c-.1,0-.1-.1-.2-.1l-.6-.9v-.2c0-.1.1-.1.1-.2l1.1-.7L31,13.6c-.1-.2-.3-.3-.4-.4s-.3,0-.5.1l-.4.3h-.2c-.1,0-.1-.1-.2-.1l-.6-.9v-.2c0-.1.1-.1.1-.2l.5-.3a2.86,2.86,0,0,1,2-.6,2,2,0,0,1,1.5,1.1Z" transform="translate(-2.66 -2.7)"/><path class="cls-1" d="M33.9,12.8c-.1,0-.1-.1,0,0l-1.3-2.3v-.2a.1.1,0,0,1,.1-.1l1.4-.8h.2a.1.1,0,0,1,.1.1l1.2,2.2v.2a.1.1,0,0,1-.1.1l-1.4.8Z" transform="translate(-2.66 -2.7)"/><path class="cls-1" d="M36.6,11.4c-.1,0-.1-.1,0,0L35.4,9V8.8a.1.1,0,0,1,.1-.1L37,8h.2a.1.1,0,0,1,.1.1l1.1,2.3v.2a.1.1,0,0,1-.1.1l-1.5.7Z" transform="translate(-2.66 -2.7)"/><path class="cls-1" d="M43.2,10.8V11a.1.1,0,0,1-.1.1l-3,1.2h-.2a.1.1,0,0,1-.1-.1l-.4-1V11a.1.1,0,0,1,.1-.1l1.2-.5-.6-1.3c-.1-.2-.2-.4-.3-.4s-.3,0-.5,0l-.5.2h-.2a.1.1,0,0,1-.1-.1l-.4-1V7.6a.1.1,0,0,1,.1-.1l.5-.2a3.17,3.17,0,0,1,2.1-.2,2.27,2.27,0,0,1,1.3,1.4Z" transform="translate(-2.66 -2.7)"/><path class="cls-1" d="M47.4,4.5a.1.1,0,0,1,.1.1l.8,2.7a1.76,1.76,0,0,1-.2,1.6,3.91,3.91,0,0,1-1.7,1.2l-2.3,1.1h-.2c-.1,0-.1-.1-.1-.2l-.3-1.1V9.7a.1.1,0,0,1,.1-.1l.8-.4L42.5,6.1c-.1-.1-.1-.1-.1-.2V5.8l.1-.1,1.6-.5h.1a.1.1,0,0,1,.1.1l1.6,3a.55.55,0,0,0,.3-.5,2,2,0,0,0-.1-.7L45.5,5V4.8a.1.1,0,0,1,.1-.1l1.5-.4C47.3,4.5,47.4,4.5,47.4,4.5Z" transform="translate(-2.66 -2.7)"/><path class="cls-1" d="M53.8,3.8a2.28,2.28,0,0,1,.9,1.6l.4,2.7v.2c0,.1-.1.1-.2.1l-2.5.4h-.2c-.1,0-.1-.1-.1-.2l-.2-1.1V7.3c0-.1.1-.1.2-.1l.8-.1-.2-1.3c0-.2-.1-.4-.2-.4s-.2-.1-.4-.1l-.5.1-.3,3.3v.2c0,.1-.1.1-.2.1l-1.4.2h-.2c-.1,0-.1-.1-.1-.2l.4-3.3-.7.1h-.2c-.1,0-.1-.1-.1-.2l-.2-1.2V4.2c0-.1.1-.1.2-.1l3.3-.5A3.21,3.21,0,0,1,53.8,3.8Z" transform="translate(-2.66 -2.7)"/><path class="cls-1" d="M60.6,8a.35.35,0,0,1-.1-.2V5.1c0-.5-.2-.7-.7-.7H57.5c-.1,0-.1,0-.2-.1a.35.35,0,0,1-.1-.2V3c0-.1,0-.1.1-.2a.35.35,0,0,1,.2-.1h2.3a3.68,3.68,0,0,1,2,.5,1.83,1.83,0,0,1,.7,1.7V7.5c0,.1,0,.1-.1.2a.35.35,0,0,1-.2.1H60.7C60.7,8.1,60.7,8,60.6,8ZM57.4,8a.35.35,0,0,1-.1-.2V5.4c0-.1,0-.1.1-.2s.1-.1.2-.1h1.5c.1,0,.1,0,.2.1a.35.35,0,0,1,.1.2V7.8c0,.1,0,.1-.1.2s-.1.1-.2.1H57.6C57.5,8.1,57.4,8.1,57.4,8Z" transform="translate(-2.66 -2.7)"/><path class="cls-1" d="M67.9,3.4c0,.1.1.1.1.2l-.1,1.1c0,.1,0,.1-.1.2a.35.35,0,0,1-.2.1h-.3A1.61,1.61,0,0,0,67,6.1l-.2,2.2c0,.1,0,.1-.1.1h-.2L65,8.3c-.1,0-.1,0-.1-.1V8.1l.2-2.4a2.15,2.15,0,0,1,.2-1l-1.8-.1c-.1,0-.1,0-.2-.1s-.1-.1-.1-.2l.1-1.1c0-.1,0-.1.1-.2s.1-.1.2-.1l4.1.3C67.8,3.3,67.9,3.3,67.9,3.4Z" transform="translate(-2.66 -2.7)"/><path class="cls-1" d="M68,8.4c0-.1-.1-.1,0-.2l.2-1.1c0-.1,0-.1.1-.2s.1-.1.2,0l2,.4L70.7,6a.62.62,0,0,0-.5-.8L68.9,5c-.1,0-.1,0-.2-.1s-.1-.1,0-.2l.2-1.1c0-.1,0-.1.1-.2s.1-.1.2,0l1.3.2a3.09,3.09,0,0,1,1.9.9,2.19,2.19,0,0,1,.4,1.9l-.2,1.3.3.1c.1,0,.1,0,.2.1s.1.1,0,.2l-.2,1.1c0,.1,0,.1-.1.2s-.1.1-.2,0l-4.4-.8C68.1,8.5,68,8.5,68,8.4Z" transform="translate(-2.66 -2.7)"/><path class="cls-1" d="M73.3,9.4V9.2l1.2-4.5a.1.1,0,0,1,.1-.1h.2l1.6.4a.1.1,0,0,1,.1.1v.2L75.3,9.8a.1.1,0,0,1-.1.1H75l-1.6-.4Z" transform="translate(-2.66 -2.7)"/><path class="cls-1" d="M82.5,7.1v.2l-.9,2.6a1.89,1.89,0,0,1-1.1,1.2,3.71,3.71,0,0,1-2.1,0l-2.5-.5a.1.1,0,0,1-.1-.1v-.2l.4-1.1a.1.1,0,0,1,.1-.1h.2l.9.1.2-3.7V5.3a.1.1,0,0,1,.1-.1h.1l1.6.6c.1,0,.1,0,.1.1V6l-.4,3.4a.76.76,0,0,0,.5-.2,1.63,1.63,0,0,0,.3-.6l.7-2.1a.1.1,0,0,1,.1-.1h.2l1.4.5C82.5,7,82.5,7,82.5,7.1Z" transform="translate(-2.66 -2.7)"/><circle class="cls-1" cx="58.24" cy="58.9" r="50.6"/></svg>