<?xml version="1.0" encoding="utf-8"?>
<!-- Generator: Adobe Illustrator 23.0.1, SVG Export Plug-In . SVG Version: 6.00 Build 0)  -->
<svg version="1.1" id="Layer_1" xmlns="http://www.w3.org/2000/svg" xmlns:xlink="http://www.w3.org/1999/xlink" x="0px" y="0px"
	 viewBox="0 0 113.4 113.4" style="enable-background:new 0 0 113.4 113.4;" xml:space="preserve">
<style type="text/css">
	.st0{fill:#666772;}
	.st1{fill:#EEEEEF;}
</style>
<g>
	<g>
		<path class="st0" d="M7.8,54.4c-0.1,0-0.1,0.1-0.2,0L3,53.6c-0.1,0-0.1,0-0.2-0.1c0-0.1-0.1-0.1,0-0.2l0.4-2.2
			c0.1-0.6,0.2-1,0.4-1.3c0.2-0.3,0.5-0.6,0.8-0.7C4.8,49,5.2,49,5.7,49l2.6,0.5c0.1,0,0.1,0,0.2,0.1s0.1,0.1,0,0.2l-0.8,4.5
			C7.9,54.3,7.8,54.4,7.8,54.4z M6.8,51.1l-1.3-0.2c-0.4-0.1-0.7,0.1-0.8,0.5l-0.1,0.7l2,0.4L6.8,51.1z"/>
		<path class="st0" d="M6.8,48.3c-0.1,0-0.1,0-0.2,0l-2.4-0.6c-0.1,0-0.1-0.1-0.1-0.1s0-0.1,0-0.2l0.4-1.6c0-0.1,0.1-0.1,0.1-0.1
			c0.1,0,0.1,0,0.2,0l2.4,0.6c0.1,0,0.1,0.1,0.1,0.1s0,0.1,0,0.2L6.8,48.3C6.9,48.2,6.8,48.2,6.8,48.3z"/>
		<path class="st0" d="M10.8,42.4c0,0.1,0,0.1,0,0.2l-0.5,1.5c0,0.1-0.1,0.1-0.1,0.1c-0.1,0-0.1,0-0.2,0l-0.4-0.1
			c0.1,0.1,0.1,0.3,0.1,0.4c0.1,0.3,0.1,0.5,0.1,0.7s0,0.4,0,0.6v0.1C9.8,46,9.7,46,9.6,46l-1.3-0.4c-0.1,0-0.1-0.1-0.2-0.3
			c0,0,0-0.1,0-0.3c0-0.4,0-0.6,0-0.7s0-0.3-0.1-0.4l-0.8-0.1c-0.3,0-0.5,0-0.6,0c-0.1,0.1-0.2,0.2-0.3,0.4l-0.1,0.3
			c0,0.1-0.1,0.1-0.1,0.1c-0.1,0-0.1,0-0.2,0l-1.1-0.4c-0.1,0-0.1-0.1-0.1-0.1c0-0.1,0-0.1,0-0.2l0.1-0.3c0.2-0.6,0.4-1,0.7-1.3
			c0.3-0.3,0.6-0.5,0.9-0.6c0.4-0.1,0.9-0.1,1.4,0l2.7,0.4C10.8,42.3,10.8,42.3,10.8,42.4z"/>
		<path class="st0" d="M8.2,35.9c0.1,0,0.1,0,0.2,0l1,0.4c0.1,0,0.1,0.1,0.1,0.1c0,0.1,0,0.1,0,0.2l-0.1,0.3
			c0.2,0.2,0.5,0.4,0.9,0.6l2.1,0.9l0.1,0.1c0,0.1,0,0.1,0,0.2l-0.6,1.4c0,0.1-0.1,0.1-0.1,0.1s-0.1,0-0.2,0l-2.2-1
			C9,39,8.7,38.8,8.6,38.7l-0.7,1.6c0,0.1-0.1,0.1-0.1,0.1s-0.1,0-0.2,0l-1-0.4c-0.1,0-0.1-0.1-0.1-0.1c0-0.1,0-0.1,0-0.2L8.2,35.9
			C8.1,36,8.1,36,8.2,35.9z"/>
		<path class="st0" d="M14.6,34.6c-0.1,0-0.1,0-0.2,0l-2.3-1.3c-0.4-0.2-0.7-0.1-0.9,0.2l-1.1,2c0,0.1-0.1,0.1-0.1,0.1s-0.1,0-0.2,0
			l-0.9-0.5c-0.1,0-0.1-0.1-0.1-0.1s0-0.1,0-0.2l1.2-2c0.4-0.8,0.9-1.2,1.4-1.4s1.1-0.1,1.8,0.3l2.3,1.3c0.1,0,0.1,0.1,0.1,0.1
			c0,0.1,0,0.1,0,0.2l-0.7,1.3C14.7,34.5,14.7,34.6,14.6,34.6z M13,37.4c-0.1,0-0.1,0-0.2,0l-2.1-1.2c-0.1,0-0.1-0.1-0.1-0.1
			s0-0.1,0-0.2l0.8-1.3c0-0.1,0.1-0.1,0.1-0.1s0.1,0,0.2,0l2.1,1.2c0.1,0,0.1,0.1,0.1,0.1s0,0.1,0,0.2L13,37.4
			C13.2,37.3,13.1,37.4,13,37.4z"/>
		<path class="st0" d="M15.5,25.4c0.5,0,1.1,0.1,1.6,0.6c0.4,0.3,0.7,0.7,0.9,1.1c0.2,0.4,0.3,0.9,0.2,1.4c0,0.5-0.1,0.9-0.3,1.4
			l-0.1,0.3c0,0.1-0.1,0.1-0.2,0.1s-0.2,0-0.2-0.1l-1-0.8c-0.1,0-0.1-0.1-0.1-0.2s0-0.1,0-0.2l0.1-0.3c0.1-0.4,0-0.8-0.4-1.1
			c-0.2-0.1-0.3-0.2-0.5-0.2c-0.1,0-0.2,0.1-0.4,0.3l-1,1.3c0,0.1-0.1,0.1-0.2,0.1s-0.1,0-0.2,0l-1.9-1.5c-0.1,0-0.1-0.1-0.1-0.2
			s0-0.1,0-0.2l0.8-1.1c0-0.1,0.1-0.1,0.2-0.1s0.1,0,0.2,0l0.8,0.6l0.3-0.4C14.5,25.7,15,25.4,15.5,25.4z"/>
		<path class="st0" d="M19.6,20c0.1,0,0.1,0,0.2,0.1l2,1.9c0.5,0.4,0.7,0.9,0.7,1.5s-0.3,1.2-0.8,1.9l-1.4,2.1
			c0,0.1-0.1,0.1-0.2,0.1s-0.1,0-0.2-0.1l-0.8-0.8c0,0-0.1-0.1-0.1-0.2s0-0.1,0.1-0.2l0.5-0.7l-3.3-1.7c-0.1,0-0.1-0.1-0.2-0.1
			L16,23.7c0-0.1,0-0.1,0-0.1l1.1-1.2l0.1-0.1h0.1l3,1.7c0.1-0.2,0.1-0.4,0-0.6s-0.2-0.3-0.4-0.5l-1.6-1.5c0,0-0.1-0.1-0.1-0.2
			s0-0.1,0.1-0.2l1-1.1C19.4,20,19.5,20,19.6,20z"/>
		<path class="st0" d="M26.2,14.9c0.6,0,1.1,0.3,1.6,0.9l1.7,2.1c0,0.1,0.1,0.1,0.1,0.2s0,0.1-0.1,0.2l-1.2,1
			c-0.1,0-0.1,0.1-0.2,0.1s-0.1,0-0.2-0.1l-1.7-2.1c-0.3-0.3-0.6-0.4-0.9-0.1l-0.4,0.4c0.1,0.2,0.3,0.5,0.6,0.9l1.5,1.7
			c0,0.1,0.1,0.1,0.1,0.2s0,0.1-0.1,0.2L25.2,22c-0.1,0-0.1,0.1-0.2,0.1s-0.1,0-0.2-0.1l-0.6-0.8c0-0.1-0.1-0.1-0.1-0.2
			s0-0.1,0.1-0.2l0.6-0.5l-0.7-0.8c-0.2-0.3-0.4-0.6-0.5-0.9L23.2,19c-0.1,0-0.1,0.1-0.2,0.1s-0.1,0-0.2-0.1l-0.7-0.8
			c0-0.1-0.1-0.1-0.1-0.2s0-0.1,0.1-0.2l2.3-1.8C25,15.2,25.6,14.9,26.2,14.9z"/>
		<path class="st0" d="M33,15.6c0,0.1,0,0.1,0,0.2s0,0.1-0.1,0.2l-2.7,1.8c-0.1,0-0.1,0-0.2,0s-0.1,0-0.2-0.1l-0.6-0.9
			c0-0.1,0-0.1,0-0.2s0-0.1,0.1-0.2l1.1-0.7l-0.8-1.2c-0.1-0.2-0.3-0.3-0.4-0.3s-0.3,0-0.5,0.1l-0.4,0.3c-0.1,0-0.1,0-0.2,0
			s-0.1,0-0.2-0.1l-0.6-0.9c0-0.1,0-0.1,0-0.2s0-0.1,0.1-0.2l0.5-0.3c0.8-0.5,1.4-0.7,2-0.7s1.1,0.4,1.6,1.1L33,15.6z"/>
		<path class="st0" d="M32.6,13.6C32.5,13.6,32.5,13.5,32.6,13.6l-1.3-2.3c0-0.1,0-0.1,0-0.2s0.1-0.1,0.1-0.1l1.4-0.8
			c0.1,0,0.1,0,0.2,0s0.1,0.1,0.1,0.1l1.2,2.2c0,0.1,0,0.1,0,0.2s-0.1,0.1-0.1,0.1l-1.4,0.8C32.7,13.6,32.6,13.6,32.6,13.6z"/>
		<path class="st0" d="M35.1,12.1C35,12.1,35,12,35.1,12.1l-1.2-2.3c0-0.1,0-0.1,0-0.2S34,9.5,34,9.5l1.4-0.7c0.1,0,0.1,0,0.2,0
			s0.1,0.1,0.1,0.1l1.1,2.2c0,0.1,0,0.1,0,0.2s-0.1,0.1-0.1,0.1l-1.4,0.7C35.3,12.2,35.2,12.2,35.1,12.1z"/>
		<path class="st0" d="M41.8,11.3c0,0.1,0,0.1,0,0.2s-0.1,0.1-0.1,0.1l-3,1.3c-0.1,0-0.1,0-0.2,0s-0.1-0.1-0.1-0.1l-0.4-1
			c0-0.1,0-0.1,0-0.2s0.1-0.1,0.1-0.1l1.2-0.5l-0.6-1.3c-0.1-0.2-0.2-0.4-0.4-0.4s-0.3,0-0.5,0.1l-0.5,0.2c-0.1,0-0.1,0-0.2,0
			S37,9.5,37,9.5l-0.4-1c0-0.1,0-0.1,0-0.2s0.1-0.1,0.1-0.1L37.2,8c0.8-0.4,1.5-0.5,2.1-0.3c0.5,0.1,1,0.6,1.3,1.4L41.8,11.3z"/>
		<path class="st0" d="M45.8,4.9c0.1,0,0.1,0.1,0.1,0.1l0.8,2.7c0.2,0.6,0.1,1.2-0.2,1.7s-0.9,0.9-1.7,1.3l-2.3,1.1
			c-0.1,0-0.1,0-0.2,0c-0.1,0-0.1-0.1-0.1-0.2l-0.3-1.1c0-0.1,0-0.1,0-0.2s0.1-0.1,0.1-0.1l0.8-0.4l-2-3.1c-0.1-0.1-0.1-0.1-0.1-0.2
			V6.4l0.1-0.1l1.6-0.5c0.1,0,0.1,0,0.1,0s0.1,0,0.1,0.1l1.7,3c0.2-0.1,0.3-0.3,0.3-0.5s0-0.4-0.1-0.7l-0.7-2.1c0-0.1,0-0.1,0-0.2
			s0.1-0.1,0.1-0.1l1.5-0.5C45.7,4.9,45.8,4.9,45.8,4.9z"/>
		<path class="st0" d="M52.1,4.1c0.5,0.3,0.8,0.8,0.9,1.5l0.5,2.7c0,0.1,0,0.1,0,0.2s-0.1,0.1-0.2,0.1l-2.5,0.5c-0.1,0-0.1,0-0.2,0
			S50.5,9,50.5,8.9l-0.2-1.1c0-0.1,0-0.1,0-0.2s0.1-0.1,0.2-0.1l0.8-0.1l-0.2-1.3c0-0.2-0.1-0.4-0.2-0.4c-0.1-0.1-0.3-0.1-0.4-0.1
			L50,5.7L49.8,9c0,0.1,0,0.1,0,0.2s-0.1,0.1-0.2,0.1l-1.4,0.3c-0.1,0-0.1,0-0.2,0s-0.1-0.1-0.1-0.2L48.3,6l-0.7,0.1
			c-0.1,0-0.1,0-0.2,0S47.3,6,47.3,5.9l-0.2-1.2c0-0.1,0-0.1,0-0.2s0.1-0.1,0.2-0.1l3.3-0.6C51.1,3.7,51.6,3.8,52.1,4.1z"/>
		<path class="st0" d="M59.1,8c0,0-0.1-0.1-0.1-0.2l-0.1-2.7c0-0.4-0.3-0.7-0.7-0.6l-2.3,0.1c-0.1,0-0.1,0-0.2-0.1
			c-0.1,0-0.1-0.1-0.1-0.2l-0.1-1.1c0-0.1,0-0.1,0.1-0.2s0.1-0.1,0.2-0.1l2.3-0.1c0.9,0,1.5,0.1,2,0.4s0.7,0.9,0.7,1.7l0.1,2.6
			c0,0.1,0,0.1-0.1,0.2c0,0.1-0.1,0.1-0.2,0.1L59.1,8C59.2,8.1,59.1,8.1,59.1,8z M55.9,8.2c-0.1,0-0.1-0.1-0.1-0.2l-0.1-2.4
			c0-0.1,0-0.1,0.1-0.2c0-0.1,0.1-0.1,0.2-0.1l1.5-0.1c0.1,0,0.1,0,0.2,0.1c0,0,0.1,0.1,0.1,0.2l0.1,2.4c0,0.1,0,0.1-0.1,0.2
			c0,0.1-0.1,0.1-0.2,0.1l-1.5,0.1C56,8.2,55.9,8.2,55.9,8.2z"/>
		<path class="st0" d="M66.2,3.2c0,0.1,0.1,0.1,0.1,0.2l-0.1,1.1c0,0.1,0,0.1-0.1,0.2c0,0-0.1,0.1-0.2,0.1h-0.3
			c-0.2,0.2-0.2,0.6-0.3,1.1l-0.1,2.2c0,0.1,0,0.1-0.1,0.1s-0.1,0.1-0.2,0l-1.5-0.1c-0.1,0-0.1,0-0.1-0.1V7.9l0.1-2.4
			c0-0.5,0.1-0.8,0.2-1l-1.8-0.1c-0.1,0-0.1,0-0.2-0.1c0-0.1-0.1-0.1-0.1-0.2L61.6,3c0-0.1,0-0.1,0.1-0.2c0.1,0,0.1-0.1,0.2-0.1
			L66,2.9C66.1,3.1,66.2,3.1,66.2,3.2z"/>
		<path class="st0" d="M66.5,8.2c0-0.1-0.1-0.1,0-0.2l0.2-1.1c0-0.1,0-0.1,0.1-0.2c0.1,0,0.1-0.1,0.2,0L69,7l0.2-1.3
			c0.1-0.4-0.1-0.7-0.6-0.8l-1.3-0.2c-0.1,0-0.1,0-0.2-0.1c0-0.1-0.1-0.1,0-0.2l0.2-1.1c0-0.1,0-0.1,0.1-0.2s0.1-0.1,0.2,0l1.3,0.2
			c0.9,0.1,1.5,0.4,1.9,0.8s0.5,1,0.4,1.8L71,7.2h0.3c0.1,0,0.1,0,0.2,0.1c0,0.1,0.1,0.1,0,0.2l-0.2,1.1c0,0.1,0,0.1-0.1,0.2
			c-0.1,0-0.1,0.1-0.2,0L66.5,8.2C66.6,8.3,66.5,8.3,66.5,8.2z"/>
		<path class="st0" d="M71.8,9.1c0-0.1,0-0.1,0-0.2l1-4.5c0-0.1,0.1-0.1,0.1-0.2c0.1,0,0.1,0,0.2,0l1.6,0.4c0.1,0,0.1,0.1,0.2,0.1
			c0,0.1,0,0.1,0,0.2l-1,4.5c0,0.1-0.1,0.1-0.1,0.2s-0.1,0-0.2,0L72,9.2C71.9,9.2,71.9,9.1,71.8,9.1z"/>
		<path class="st0" d="M81,6.5c0,0.1,0,0.1,0,0.2l-0.8,2.7c-0.2,0.6-0.6,1-1.1,1.2s-1.2,0.2-2.1,0.1l-2.5-0.4
			c-0.1,0-0.1-0.1-0.1-0.1c0-0.1,0-0.1,0-0.2l0.3-1.1c0-0.1,0.1-0.1,0.1-0.1c0.1,0,0.1,0,0.2,0l0.9,0.1L76,5.2C76,5.1,76,5,76,5
			s0-0.1,0.1-0.1h0.1l1.6,0.5c0.1,0,0.1,0,0.1,0.1v0.1L77.6,9c0.2,0,0.4-0.1,0.5-0.2s0.2-0.3,0.3-0.6l0.7-2.1C79.1,6,79.2,6,79.2,6
			c0.1,0,0.1,0,0.2,0L81,6.5C80.9,6.4,81,6.4,81,6.5z"/>
	</g>
	<circle class="st1" cx="60.9" cy="61.6" r="50.6"/>
</g>
</svg>
