<svg id="Layer_1" data-name="Layer 1" xmlns="http://www.w3.org/2000/svg" viewBox="0 0 108.74 109.5"><title>fishfact_black</title><path d="M7.8,54.4c-.1,0-.1.1-.2,0L3,53.6c-.1,0-.1,0-.2-.1s-.1-.1,0-.2l.4-2.2a3.32,3.32,0,0,1,.4-1.3,1.78,1.78,0,0,1,.8-.7A5.28,5.28,0,0,1,5.7,49l2.6.5c.1,0,.1,0,.2.1s.1.1,0,.2l-.8,4.5C7.9,54.3,7.8,54.4,7.8,54.4Zm-1-3.3-1.3-.2a.62.62,0,0,0-.8.5l-.1.7,2,.4Z" transform="translate(-2.76 -2.7)"/><path d="M6.8,48.3H6.6l-2.4-.6a.1.1,0,0,1-.1-.1v-.2l.4-1.6a.1.1,0,0,1,.1-.1h.2l2.4.6a.1.1,0,0,1,.1.1v.2l-.5,1.7C6.9,48.2,6.8,48.2,6.8,48.3Z" transform="translate(-2.76 -2.7)"/><path d="M10.8,42.4v.2l-.5,1.5a.1.1,0,0,1-.1.1H10l-.4-.1a.6.6,0,0,1,.1.4,2,2,0,0,1,.1.7v.7c0,.1-.1.1-.2.1l-1.3-.4c-.1,0-.1-.1-.2-.3v-1a.6.6,0,0,0-.1-.4l-.8-.1H6.6a1.38,1.38,0,0,0-.3.4l-.1.3a.1.1,0,0,1-.1.1H5.9l-1.1-.4a.1.1,0,0,1-.1-.1v-.2l.1-.3a3.16,3.16,0,0,1,.7-1.3,2.36,2.36,0,0,1,.9-.6,3.3,3.3,0,0,1,1.4,0l2.7.4C10.8,42.3,10.8,42.3,10.8,42.4Z" transform="translate(-2.76 -2.7)"/><path d="M8.2,35.9h.2l1,.4a.1.1,0,0,1,.1.1v.2l-.1.3a3.49,3.49,0,0,0,.9.6l2.1.9.1.1v.2l-.6,1.4a.1.1,0,0,1-.1.1h-.2l-2.2-1a3.78,3.78,0,0,1-.8-.5l-.7,1.6a.1.1,0,0,1-.1.1H7.6l-1-.4a.1.1,0,0,1-.1-.1v-.2l1.7-3.8Z" transform="translate(-2.76 -2.7)"/><path d="M14.6,34.6h-.2l-2.3-1.3a.63.63,0,0,0-.9.2l-1.1,2a.1.1,0,0,1-.1.1H9.8l-.9-.5a.1.1,0,0,1-.1-.1v-.2l1.2-2a2.69,2.69,0,0,1,1.4-1.4,2.06,2.06,0,0,1,1.8.3L15.5,33a.1.1,0,0,1,.1.1v.2l-.7,1.3C14.7,34.5,14.7,34.6,14.6,34.6ZM13,37.4h-.2l-2.1-1.2a.1.1,0,0,1-.1-.1v-.2l.8-1.3a.1.1,0,0,1,.1-.1h.2l2.1,1.2a.1.1,0,0,1,.1.1V36L13,37.4C13.2,37.3,13.1,37.4,13,37.4Z" transform="translate(-2.76 -2.7)"/><path d="M15.5,25.4a2.16,2.16,0,0,1,1.6.6,3.13,3.13,0,0,1,.9,1.1,2.2,2.2,0,0,1,.2,1.4,3.53,3.53,0,0,1-.3,1.4l-.1.3c0,.1-.1.1-.2.1s-.2,0-.2-.1l-1-.8c-.1,0-.1-.1-.1-.2V29l.1-.3a1,1,0,0,0-.4-1.1c-.2-.1-.3-.2-.5-.2s-.2.1-.4.3l-1,1.3c0,.1-.1.1-.2.1h-.2l-1.9-1.5c-.1,0-.1-.1-.1-.2v-.2l.8-1.1c0-.1.1-.1.2-.1h.2l.8.6.3-.4A2.24,2.24,0,0,1,15.5,25.4Z" transform="translate(-2.76 -2.7)"/><path d="M19.6,20c.1,0,.1,0,.2.1l2,1.9a1.8,1.8,0,0,1,.7,1.5,3.4,3.4,0,0,1-.8,1.9l-1.4,2.1c0,.1-.1.1-.2.1s-.1,0-.2-.1l-.8-.8a.35.35,0,0,1-.1-.2c0-.1,0-.1.1-.2l.5-.7-3.3-1.7c-.1,0-.1-.1-.2-.1l-.1-.1v-.1l1.1-1.2.1-.1h.1l3,1.7a.64.64,0,0,0,0-.6,1.76,1.76,0,0,0-.4-.5l-1.6-1.5a.35.35,0,0,1-.1-.2c0-.1,0-.1.1-.2l1-1.1A.37.37,0,0,0,19.6,20Z" transform="translate(-2.76 -2.7)"/><path d="M26.2,14.9a2.06,2.06,0,0,1,1.6.9l1.7,2.1c0,.1.1.1.1.2s0,.1-.1.2l-1.2,1c-.1,0-.1.1-.2.1s-.1,0-.2-.1l-1.7-2.1c-.3-.3-.6-.4-.9-.1l-.4.4a6.78,6.78,0,0,0,.6.9L27,20.1c0,.1.1.1.1.2s0,.1-.1.2L25.2,22c-.1,0-.1.1-.2.1s-.1,0-.2-.1l-.6-.8c0-.1-.1-.1-.1-.2s0-.1.1-.2l.6-.5-.7-.8a4.05,4.05,0,0,1-.5-.9l-.4.4c-.1,0-.1.1-.2.1s-.1,0-.2-.1l-.7-.8c0-.1-.1-.1-.1-.2s0-.1.1-.2L24.4,16A2.26,2.26,0,0,1,26.2,14.9Z" transform="translate(-2.76 -2.7)"/><path d="M33,15.6v.2c0,.1,0,.1-.1.2l-2.7,1.8H30c-.1,0-.1,0-.2-.1l-.6-.9v-.2c0-.1,0-.1.1-.2l1.1-.7-.8-1.2a.54.54,0,0,0-.4-.3,1.09,1.09,0,0,0-.5.1l-.4.3h-.2c-.1,0-.1,0-.2-.1l-.6-.9v-.2c0-.1,0-.1.1-.2l.5-.3a3.71,3.71,0,0,1,2-.7,2.08,2.08,0,0,1,1.6,1.1Z" transform="translate(-2.76 -2.7)"/><path d="M32.6,13.6c-.1,0-.1-.1,0,0l-1.3-2.3v-.2a.1.1,0,0,1,.1-.1l1.4-.8H33a.1.1,0,0,1,.1.1l1.2,2.2v.2a.1.1,0,0,1-.1.1l-1.4.8Z" transform="translate(-2.76 -2.7)"/><path d="M35.1,12.1c-.1,0-.1-.1,0,0L33.9,9.8V9.6a.1.1,0,0,1,.1-.1l1.4-.7h.2a.1.1,0,0,1,.1.1l1.1,2.2v.2a.1.1,0,0,1-.1.1l-1.4.7C35.3,12.2,35.2,12.2,35.1,12.1Z" transform="translate(-2.76 -2.7)"/><path d="M41.8,11.3v.2a.1.1,0,0,1-.1.1l-3,1.3h-.2a.1.1,0,0,1-.1-.1l-.4-1v-.2a.1.1,0,0,1,.1-.1l1.2-.5-.6-1.3c-.1-.2-.2-.4-.4-.4a.9.9,0,0,0-.5.1l-.5.2h-.2a.1.1,0,0,1-.1-.1l-.4-1V8.3a.1.1,0,0,1,.1-.1l.5-.2a2.73,2.73,0,0,1,2.1-.3,2,2,0,0,1,1.3,1.4Z" transform="translate(-2.76 -2.7)"/><path d="M45.8,4.9a.1.1,0,0,1,.1.1l.8,2.7a2,2,0,0,1-.2,1.7,4,4,0,0,1-1.7,1.3l-2.3,1.1h-.2c-.1,0-.1-.1-.1-.2l-.3-1.1v-.2a.1.1,0,0,1,.1-.1l.8-.4-2-3.1c-.1-.1-.1-.1-.1-.2V6.4l.1-.1,1.6-.5h.1a.1.1,0,0,1,.1.1l1.7,3a.55.55,0,0,0,.3-.5,2,2,0,0,0-.1-.7l-.7-2.1V5.4a.1.1,0,0,1,.1-.1l1.5-.5A1.58,1.58,0,0,0,45.8,4.9Z" transform="translate(-2.76 -2.7)"/><path d="M52.1,4.1A2,2,0,0,1,53,5.6l.5,2.7v.2c0,.1-.1.1-.2.1l-2.5.5h-.2c-.1,0-.1-.1-.1-.2l-.2-1.1V7.6c0-.1.1-.1.2-.1l.8-.1-.2-1.3c0-.2-.1-.4-.2-.4a.6.6,0,0,0-.4-.1l-.5.1L49.8,9v.2c0,.1-.1.1-.2.1l-1.4.3H48c-.1,0-.1-.1-.1-.2L48.3,6l-.7.1h-.2c-.1,0-.1-.1-.1-.2l-.2-1.2V4.5c0-.1.1-.1.2-.1l3.3-.6A2.06,2.06,0,0,1,52.1,4.1Z" transform="translate(-2.76 -2.7)"/><path d="M59.1,8a.35.35,0,0,1-.1-.2l-.1-2.7a.56.56,0,0,0-.7-.6l-2.3.1c-.1,0-.1,0-.2-.1s-.1-.1-.1-.2l-.1-1.1c0-.1,0-.1.1-.2s.1-.1.2-.1l2.3-.1a3.74,3.74,0,0,1,2,.4,1.83,1.83,0,0,1,.7,1.7l.1,2.6c0,.1,0,.1-.1.2s-.1.1-.2.1L59.1,8C59.2,8.1,59.1,8.1,59.1,8Zm-3.2.2c-.1,0-.1-.1-.1-.2l-.1-2.4c0-.1,0-.1.1-.2s.1-.1.2-.1l1.5-.1c.1,0,.1,0,.2.1a.35.35,0,0,1,.1.2l.1,2.4c0,.1,0,.1-.1.2s-.1.1-.2.1l-1.5.1A.31.31,0,0,0,55.9,8.2Z" transform="translate(-2.76 -2.7)"/><path d="M66.2,3.2c0,.1.1.1.1.2l-.1,1.1c0,.1,0,.1-.1.2a.35.35,0,0,1-.2.1h-.3c-.2.2-.2.6-.3,1.1l-.1,2.2c0,.1,0,.1-.1.1s-.1.1-.2,0l-1.5-.1c-.1,0-.1,0-.1-.1V7.9l.1-2.4a2.15,2.15,0,0,1,.2-1l-1.8-.1c-.1,0-.1,0-.2-.1s-.1-.1-.1-.2L61.6,3c0-.1,0-.1.1-.2s.1-.1.2-.1l4.1.2C66.1,3.1,66.2,3.1,66.2,3.2Z" transform="translate(-2.76 -2.7)"/><path d="M66.5,8.2c0-.1-.1-.1,0-.2l.2-1.1c0-.1,0-.1.1-.2s.1-.1.2,0L69,7l.2-1.3c.1-.4-.1-.7-.6-.8l-1.3-.2c-.1,0-.1,0-.2-.1s-.1-.1,0-.2l.2-1.1c0-.1,0-.1.1-.2s.1-.1.2,0l1.3.2a3.05,3.05,0,0,1,1.9.8,2.06,2.06,0,0,1,.4,1.8L71,7.2h.3c.1,0,.1,0,.2.1s.1.1,0,.2l-.2,1.1c0,.1,0,.1-.1.2s-.1.1-.2,0l-4.5-.6C66.6,8.3,66.5,8.3,66.5,8.2Z" transform="translate(-2.76 -2.7)"/><path d="M71.8,9.1V8.9l1-4.5c0-.1.1-.1.1-.2h.2l1.6.4c.1,0,.1.1.2.1v.2l-1,4.5c0,.1-.1.1-.1.2s-.1,0-.2,0L72,9.2C71.9,9.2,71.9,9.1,71.8,9.1Z" transform="translate(-2.76 -2.7)"/><path d="M81,6.5v.2l-.8,2.7a1.89,1.89,0,0,1-1.1,1.2,4.6,4.6,0,0,1-2.1.1l-2.5-.4a.1.1,0,0,1-.1-.1V10l.3-1.1a.1.1,0,0,1,.1-.1H75l.9.1L76,5.2V5a.1.1,0,0,1,.1-.1h.1l1.6.5c.1,0,.1,0,.1.1v.1L77.6,9a.76.76,0,0,0,.5-.2,1.63,1.63,0,0,0,.3-.6l.7-2.1a.1.1,0,0,1,.1-.1h.2l1.6.5C80.9,6.4,81,6.4,81,6.5Z" transform="translate(-2.76 -2.7)"/><circle cx="58.14" cy="58.9" r="50.6"/></svg>