<svg width="114" height="114" xmlns="http://www.w3.org/2000/svg" xmlns:xlink="http://www.w3.org/1999/xlink" overflow="hidden"><defs><clipPath id="clip0"><path d="M129 394 243 394 243 508 129 508Z" fill-rule="evenodd" clip-rule="evenodd"/></clipPath><clipPath id="clip1"><path d="M184.691 395.006 241.722 449.701 187.027 506.732 129.997 452.037Z" fill-rule="evenodd" clip-rule="evenodd"/></clipPath><clipPath id="clip2"><path d="M184.691 395.006 241.722 449.701 187.027 506.732 129.997 452.037Z" fill-rule="evenodd" clip-rule="evenodd"/></clipPath><clipPath id="clip3"><path d="M184.691 395.006 241.722 449.701 187.027 506.732 129.997 452.037Z" fill-rule="evenodd" clip-rule="evenodd"/></clipPath></defs><g clip-path="url(#clip0)" transform="translate(-129 -394)"><g clip-path="url(#clip1)"><g clip-path="url(#clip2)"><g clip-path="url(#clip3)"><path d="M191.782 472.401C191.728 469.841 189.533 467.849 186.732 467.558L186.63 462.671C199.828 461.871 209.839 450.6 209.039 437.402 208.239 424.204 196.971 414.31 183.773 415.11 170.574 415.91 160.624 427.237 161.364 440.378 162.092 452.938 172.427 462.735 185.003 462.821L185.105 467.709C183.944 467.85 182.849 468.396 181.933 469.114 180.846 470.01 180.233 471.362 180.263 472.759L180.606 489.168C180.689 490.389 181.179 491.543 182.07 492.398 183.259 493.537 184.784 494.087 186.413 494.053 187.869 494.081 189.313 493.527 190.398 492.515 191.485 491.619 192.097 490.267 192.068 488.87L191.782 472.401ZM163.09 439.411C162.835 427.191 172.577 417.032 184.854 416.717 197.131 416.402 207.233 426.204 207.548 438.481 207.863 450.758 198.061 460.86 185.784 461.175 179.848 461.299 174.213 459.088 169.936 454.986 165.718 450.941 163.214 445.346 163.09 439.411ZM186.434 492.248C184.222 492.294 182.329 490.82 182.29 488.958L181.949 472.665C181.929 471.734 182.378 470.91 183.064 470.313 183.864 469.598 184.904 469.227 186.011 469.262 187.175 469.237 188.348 469.679 189.237 470.417 189.831 470.987 190.195 471.678 190.212 472.492L190.496 488.845C190.515 489.776 190.067 490.6 189.381 491.197 188.521 491.855 187.54 492.283 186.434 492.248 186.434 492.248 186.434 492.248 186.434 492.248Z" stroke="#084866" stroke-width="2.3339" fill="#084866"/></g></g></g></g></svg>