<svg width="88" height="88" xmlns="http://www.w3.org/2000/svg" xmlns:xlink="http://www.w3.org/1999/xlink" overflow="hidden"><defs><clipPath id="clip0"><path d="M50 407 138 407 138 495 50 495Z" fill-rule="evenodd" clip-rule="evenodd"/></clipPath><clipPath id="clip1"><path d="M51 407 138 407 138 494 51 494Z" fill-rule="evenodd" clip-rule="evenodd"/></clipPath><clipPath id="clip2"><path d="M51 407 138 407 138 494 51 494Z" fill-rule="evenodd" clip-rule="evenodd"/></clipPath><clipPath id="clip3"><path d="M51 407 138 407 138 494 51 494Z" fill-rule="evenodd" clip-rule="evenodd"/></clipPath></defs><g clip-path="url(#clip0)" transform="translate(-50 -407)"><g clip-path="url(#clip1)"><g clip-path="url(#clip2)"><g clip-path="url(#clip3)"><path d="M99.2125 486.219 83.1655 470.172C82.6782 469.663 81.9087 469.547 81.2932 469.89 79.5109 470.837 78.3635 472.657 78.2781 474.673 78.408 477.424 76.8032 479.963 74.2625 481.025 71.0322 482.39 67.2991 481.69 64.7822 479.248L64.1343 478.6C61.621 476.015 60.8988 472.177 62.3009 468.856 63.3371 466.364 65.8218 464.787 68.5178 464.909 70.53 464.813 72.3443 463.669 73.2983 461.894 73.6406 461.278 73.5245 460.509 73.0155 460.022L56.9713 443.975 68.5722 432.284C69.5842 431.251 71.1438 430.982 72.4437 431.616 74.9023 432.861 76.481 435.353 76.5563 438.108 76.4537 440.069 77.6066 441.879 79.4272 442.616 82.0714 443.697 85.1042 443.12 87.1666 441.143L87.7874 440.522C89.7161 438.539 90.2733 435.596 89.203 433.046 88.4386 431.177 86.5741 429.998 84.5584 430.109 81.8008 430.038 79.3047 428.459 78.0588 425.998 77.4252 424.699 77.6934 423.14 78.7249 422.128L89.7875 411.159 105.828 427.199C106.316 427.708 107.085 427.823 107.7 427.481 109.484 426.536 110.633 424.718 110.722 422.702 110.592 419.951 112.196 417.413 114.737 416.35 117.967 414.985 121.701 415.685 124.218 418.127L124.865 418.775C127.378 421.359 128.101 425.197 126.699 428.519 125.665 431.013 123.179 432.591 120.482 432.466 118.468 432.552 116.651 433.7 115.706 435.481 115.364 436.096 115.48 436.865 115.988 437.353L132.031 453.4 121.059 464.372C120.048 465.405 118.488 465.673 117.19 465.038 114.73 463.792 113.152 461.298 113.078 458.542 113.18 456.581 112.028 454.771 110.208 454.034 107.564 452.952 104.531 453.529 102.469 455.507L101.847 456.128C99.9183 458.111 99.361 461.054 100.431 463.604 101.197 465.472 103.061 466.65 105.076 466.541L105.076 466.541C107.837 466.575 110.347 468.149 111.58 470.619 112.216 471.928 111.944 473.497 110.905 474.516ZM82.1043 467.893C82.988 467.894 83.8333 468.254 84.447 468.89L99.2125 483.656 109.628 473.241C110.146 472.746 110.266 471.964 109.919 471.337 108.98 469.548 107.147 468.406 105.127 468.353 102.377 468.479 99.8404 466.876 98.7748 464.338 97.41 461.107 98.1098 457.374 100.552 454.857L101.2 454.209C103.785 451.696 107.623 450.974 110.944 452.376 113.436 453.412 115.013 455.897 114.891 458.593 114.977 460.608 116.124 462.427 117.906 463.373 118.522 463.715 119.291 463.599 119.778 463.091L129.469 453.4 114.703 438.634C113.672 437.622 113.403 436.064 114.037 434.765 115.278 432.301 117.776 430.72 120.534 430.653 122.495 430.756 124.305 429.603 125.041 427.782 126.122 425.138 125.545 422.105 123.568 420.043L122.947 419.422C120.964 417.494 118.022 416.937 115.472 418.006 113.602 418.769 112.422 420.635 112.534 422.651 112.462 425.408 110.883 427.904 108.423 429.151 107.124 429.786 105.564 429.518 104.553 428.484L89.7875 413.716 80 423.412C79.4933 423.9 79.3788 424.667 79.7209 425.282 80.6656 427.068 82.4889 428.216 84.5077 428.297 87.2576 428.171 89.7939 429.774 90.8596 432.312 92.2244 435.543 91.5246 439.276 89.0824 441.793L88.4345 442.441C85.85 444.954 82.0125 445.676 78.6914 444.274 76.1988 443.238 74.621 440.754 74.7438 438.057 74.6553 436.044 73.5084 434.227 71.7287 433.281 71.1128 432.939 70.3437 433.055 69.8563 433.564L59.5287 443.975 74.3006 458.747C75.3336 459.758 75.6021 461.318 74.9667 462.617 73.7159 465.072 71.2221 466.647 68.4671 466.722 66.5074 466.625 64.7002 467.776 63.9594 469.593 62.8779 472.237 63.455 475.27 65.432 477.332L66.0528 477.953C68.0358 479.881 70.9788 480.439 73.5294 479.369 75.3987 478.605 76.5779 476.74 76.4656 474.724 76.5377 471.967 78.1161 469.471 80.5764 468.224 81.0578 468.011 81.5777 467.898 82.1043 467.893Z" stroke="#084866" stroke-width="2.36047" fill="#084866"/></g></g></g></g></svg>