<?xml version="1.0" encoding="utf-8"?>
<!-- Generator: Adobe Illustrator 23.0.1, SVG Export Plug-In . SVG Version: 6.00 Build 0)  -->
<svg version="1.1" id="Layer_1" xmlns="http://www.w3.org/2000/svg" xmlns:xlink="http://www.w3.org/1999/xlink" x="0px" y="0px"
	 viewBox="0 0 113.4 113.4" style="enable-background:new 0 0 113.4 113.4;" xml:space="preserve">
<style type="text/css">
	.st0{fill:#9B6D2A;}
	.st1{fill:#FAF7F5;}
</style>
<g>
	<g>
		<path class="st0" d="M8.3,51.2c-0.1,0-0.1,0.1-0.2,0l-2.6-0.5c-0.4-0.1-0.7,0.1-0.8,0.5l-0.4,2.3c0,0.1,0,0.1-0.1,0.2
			c-0.1,0-0.1,0.1-0.2,0l-1.1-0.2c-0.1,0-0.1,0-0.2-0.1c0-0.1-0.1-0.1,0-0.2l0.4-2.3C3.3,50,3.5,49.4,4,49.1c0.4-0.4,1-0.5,1.8-0.3
			l2.6,0.5c0.1,0,0.1,0,0.2,0.1c0,0.1,0.1,0.1,0,0.2l-0.3,1.5C8.4,51.1,8.4,51.2,8.3,51.2z M7.8,54.4c-0.1,0-0.1,0.1-0.2,0L5.3,54
			c-0.1,0-0.1,0-0.2-0.1c0-0.1-0.1-0.1,0-0.2l0.3-1.5c0-0.1,0-0.1,0.1-0.2c0.1,0,0.1-0.1,0.2,0L8,52.4c0.1,0,0.1,0,0.2,0.1
			c0,0.1,0.1,0.1,0,0.2l-0.3,1.5C7.9,54.3,7.8,54.4,7.8,54.4z"/>
		<path class="st0" d="M8.6,48c-0.5,0.3-1.1,0.4-1.8,0.2l-2.6-0.8c-0.1,0-0.1-0.1-0.1-0.1c0-0.1,0-0.1,0-0.2l0.4-1.3
			c0-0.1,0.1-0.1,0.1-0.1c0.1,0,0.1,0,0.2,0l2.6,0.8c0.2,0.1,0.4,0,0.5-0.1s0.2-0.3,0.3-0.5c0.1-0.2,0.1-0.4,0-0.6S8,45,7.8,45
			l-0.5-0.1c-0.5-0.2-0.8-0.1-0.9,0.1c0,0.1,0,0.2,0,0.4v0.1c0,0.1-0.1,0.1-0.1,0.1s-0.1,0-0.2,0l-1-0.3c-0.2,0-0.3-0.2-0.3-0.3
			c0-0.2,0-0.4,0.1-0.8c0.1-0.5,0.3-0.8,0.6-1C5.7,43,6,42.9,6.3,42.8c0.3,0,0.7,0,1.2,0.2l0.2,0.1c0.1,0,0.2,0.1,0.3,0.1
			s0.2,0.1,0.3,0.1c0.7,0.2,1.1,0.6,1.4,1.2c0.3,0.5,0.3,1.2,0,2C9.5,47.1,9.1,47.7,8.6,48z"/>
		<path class="st0" d="M8.6,42.3c-0.1,0-0.1,0-0.2,0l-2.3-0.9C6,41.4,6,41.3,6,41.3c0-0.1,0-0.1,0-0.2l0.6-1.5
			c0-0.1,0.1-0.1,0.1-0.1c0.1,0,0.1,0,0.2,0l2.3,0.9c0.1,0,0.1,0.1,0.1,0.1c0,0.1,0,0.1,0,0.2L8.6,42.3C8.7,42.3,8.7,42.3,8.6,42.3z
			"/>
		<path class="st0" d="M11.6,40.5c-0.1,0-0.1,0-0.2,0l-4.2-2c-0.1,0-0.1-0.1-0.1-0.1c0-0.1,0-0.1,0-0.2l1-2.2
			c0.3-0.5,0.5-0.9,0.8-1.2c0.3-0.3,0.6-0.4,1-0.5s0.8,0.1,1.4,0.3l2.3,1.1c0.1,0,0.1,0.1,0.1,0.1c0,0.1,0,0.1,0,0.2L13,37.4
			c0,0.1-0.1,0.1-0.1,0.1c-0.1,0-0.1,0-0.2,0l-2.4-1.2c-0.4-0.2-0.7-0.1-0.9,0.3l-0.3,0.5l3,1.4c0.1,0,0.1,0.1,0.1,0.1
			c0,0.1,0,0.1,0,0.2l-0.7,1.4C11.7,40.4,11.7,40.5,11.6,40.5z"/>
		<path class="st0" d="M15.9,32.5c-0.1,0-0.1,0-0.2,0l-2.2-1.4c-0.4-0.2-0.7-0.2-0.9,0.2l-1.2,2c0,0.1-0.1,0.1-0.2,0.1s-0.1,0-0.2,0
			l-0.9-0.6c-0.1,0-0.1-0.1-0.1-0.2s0-0.1,0-0.2l1.3-2c0.5-0.7,1-1.2,1.5-1.4c0.5-0.2,1.2-0.1,1.8,0.4l2.2,1.4
			c0.1,0,0.1,0.1,0.1,0.2s0,0.1,0,0.2l-0.8,1.3C16,32.4,16,32.5,15.9,32.5z M14.2,35.2c-0.1,0-0.1,0-0.2,0l-2-1.3
			c-0.1,0-0.1-0.1-0.1-0.2s0-0.1,0-0.2l0.8-1.3c0-0.1,0.1-0.1,0.2-0.1s0.1,0,0.2,0l2,1.3c0.1,0,0.1,0.1,0.1,0.2s0,0.1,0,0.2
			l-0.8,1.3C14.3,35.2,14.3,35.2,14.2,35.2z"/>
		<path class="st0" d="M17.2,23.3c0.5,0,1,0.2,1.6,0.6c0.4,0.3,0.7,0.7,0.8,1.2c0.2,0.4,0.2,0.9,0.2,1.4s-0.2,0.9-0.4,1.4l-0.2,0.3
			c0,0.1-0.1,0.1-0.2,0.1s-0.2,0-0.2-0.1l-1-0.8c-0.1,0-0.1-0.1-0.1-0.2s0-0.1,0-0.2l0.1-0.3c0.1-0.4,0-0.8-0.4-1.1
			c-0.2-0.1-0.3-0.2-0.5-0.2c-0.1,0-0.3,0.1-0.4,0.2l-1,1.3c0,0.1-0.1,0.1-0.2,0.1s-0.1,0-0.2-0.1l-1.9-1.5c-0.1,0-0.1-0.1-0.1-0.2
			s0-0.1,0.1-0.2l0.9-1.1c0-0.1,0.1-0.1,0.2-0.1s0.1,0,0.2,0.1l0.8,0.6l0.3-0.4C16.2,23.6,16.7,23.3,17.2,23.3z"/>
		<path class="st0" d="M21.5,18.1c0.1,0,0.1,0,0.2,0.1l2,2c0.5,0.5,0.6,1,0.6,1.6c-0.1,0.6-0.4,1.2-0.9,1.9l-1.5,2.1
			c0,0.1-0.1,0.1-0.2,0.1s-0.1,0-0.2-0.1L20.7,25c0,0-0.1-0.1-0.1-0.2s0-0.1,0.1-0.2l0.5-0.7L18,22c-0.1-0.1-0.1-0.1-0.2-0.1
			l-0.1-0.1c0-0.1,0-0.1,0.1-0.1l1.2-1.2l0.1-0.1h0.1l2.9,1.9c0.1-0.2,0.1-0.4,0-0.6s-0.2-0.4-0.4-0.6l-1.6-1.6c0,0-0.1-0.1-0.1-0.2
			s0-0.1,0.1-0.2l1.1-1.1C21.4,18.2,21.5,18.1,21.5,18.1z"/>
		<path class="st0" d="M28.4,13.3c0.6,0,1.1,0.3,1.5,1l1.6,2.2c0,0.1,0.1,0.1,0,0.2c0,0.1,0,0.1-0.1,0.2l-1.2,0.9
			c-0.1,0-0.1,0.1-0.2,0c-0.1,0-0.1,0-0.2-0.1l-1.6-2.1c-0.3-0.4-0.6-0.4-0.9-0.1l-0.4,0.3c0.1,0.3,0.3,0.5,0.5,0.9l1.5,1.8
			c0,0.1,0.1,0.1,0,0.2c0,0.1,0,0.1-0.1,0.2l-1.9,1.4c-0.1,0-0.1,0.1-0.2,0c-0.1,0-0.1,0-0.2-0.1l-0.6-0.8c0-0.1-0.1-0.1,0-0.2
			c0-0.1,0-0.1,0.1-0.2l0.6-0.4L26,17.7c-0.2-0.3-0.4-0.6-0.5-0.9L25,17.1c-0.1,0-0.1,0.1-0.2,0c-0.1,0-0.1,0-0.2-0.1L24,16.1
			c0-0.1-0.1-0.1,0-0.2c0.1-0.1,0-0.1,0.1-0.2l2.3-1.7C27.2,13.6,27.8,13.3,28.4,13.3z"/>
		<path class="st0" d="M35.2,14.3c0,0.1,0,0.1,0,0.2s-0.1,0.1-0.1,0.1l-2.8,1.6c-0.1,0-0.1,0-0.2,0S32,16.1,32,16.1l-0.6-0.9
			c0-0.1,0-0.1,0-0.2s0.1-0.1,0.1-0.1l1.1-0.7L31.8,13c-0.1-0.2-0.3-0.3-0.4-0.4s-0.3,0-0.5,0.1L30.5,13c-0.1,0-0.1,0-0.2,0
			s-0.1-0.1-0.1-0.1L29.7,12c0-0.1,0-0.1,0-0.2s0.1-0.1,0.1-0.1l0.5-0.3c0.8-0.5,1.4-0.7,2-0.6s1.1,0.5,1.5,1.2L35.2,14.3z"/>
		<path class="st0" d="M34.8,12.3C34.7,12.3,34.7,12.2,34.8,12.3L33.6,10c0-0.1,0-0.1,0-0.2s0.1-0.1,0.1-0.1L35.1,9
			c0.1,0,0.1,0,0.2,0s0.1,0.1,0.1,0.1l1.1,2.2c0,0.1,0,0.1,0,0.2s-0.1,0.1-0.1,0.1L35,12.3C34.9,12.3,34.9,12.3,34.8,12.3z"/>
		<path class="st0" d="M37.4,11C37.3,11,37.3,10.9,37.4,11l-1.1-2.4c0-0.1,0-0.1,0-0.2s0.1-0.1,0.1-0.1l1.5-0.7c0.1,0,0.1,0,0.2,0
			s0.1,0.1,0.1,0.1l1,2.3c0,0.1,0,0.1,0,0.2s-0.1,0.1-0.1,0.1L37.6,11C37.6,11,37.5,11,37.4,11z"/>
		<path class="st0" d="M44.1,10.5c0,0.1,0,0.1,0,0.2S44,10.8,44,10.8l-3,1.1c-0.1,0-0.1,0-0.2,0s-0.1-0.1-0.1-0.1l-0.4-1
			c0-0.1,0-0.1,0-0.2s0.1-0.1,0.1-0.1l1.2-0.5l-0.5-1.3c-0.1-0.2-0.2-0.4-0.3-0.4s-0.3,0-0.5,0l-0.5,0.2c-0.1,0-0.1,0-0.2,0
			s-0.1-0.1-0.1-0.1l-0.4-1c0-0.1,0-0.1,0-0.2s0.1-0.1,0.1-0.1l0.5-0.2c0.9-0.3,1.5-0.4,2.1-0.2c0.5,0.2,1,0.6,1.3,1.4L44.1,10.5z"
			/>
		<path class="st0" d="M48.4,4.3c0.1,0,0.1,0.1,0.1,0.1l0.7,2.7c0.2,0.6,0.1,1.2-0.3,1.6c-0.3,0.5-0.9,0.9-1.7,1.2l-2.4,1
			c-0.1,0-0.1,0-0.2,0c-0.1,0-0.1-0.1-0.1-0.2l-0.3-1.1c0-0.1,0-0.1,0-0.2s0.1-0.1,0.1-0.1l0.8-0.4l-1.9-3.2
			c-0.1-0.1-0.1-0.1-0.1-0.2V5.4l0.1-0.1l1.6-0.4c0.1,0,0.1,0,0.1,0S45,4.9,45,5l1.6,3.1c0.2-0.1,0.3-0.3,0.3-0.5s0-0.4-0.1-0.7
			l-0.6-2.1c0-0.1,0-0.1,0-0.2s0.1-0.1,0.1-0.1l1.5-0.4C48.3,4.2,48.4,4.2,48.4,4.3z"/>
		<path class="st0" d="M54.8,3.7c0.4,0.3,0.7,0.8,0.8,1.6L56,8c0,0.1,0,0.1,0,0.2s-0.1,0.1-0.2,0.1l-2.5,0.4c-0.1,0-0.1,0-0.2,0
			C53,8.7,53,8.6,53,8.5l-0.2-1.1c0-0.1,0-0.1,0-0.2s0.1-0.1,0.2-0.1L53.8,7l-0.2-1.3c0-0.2-0.1-0.4-0.2-0.5
			c-0.1-0.1-0.2-0.1-0.4-0.1l-0.5,0.1l-0.3,3.3c0,0.1,0,0.1,0,0.2S52.1,8.8,52,8.8L50.5,9c-0.1,0-0.1,0-0.2,0
			c-0.1,0-0.1-0.1-0.1-0.2l0.5-3.3L50,5.6c-0.1,0-0.1,0-0.2,0c-0.1,0-0.1-0.1-0.1-0.2l-0.2-1.2c0-0.1,0-0.1,0-0.2
			c0-0.1,0.1-0.1,0.2-0.1L53,3.4C53.8,3.3,54.3,3.4,54.8,3.7z"/>
		<path class="st0" d="M61.5,8c0,0-0.1-0.1-0.1-0.2V5.1c0-0.4-0.2-0.7-0.7-0.7h-2.3c-0.1,0-0.1,0-0.2-0.1s-0.1-0.1-0.1-0.2V3
			c0-0.1,0-0.1,0.1-0.2c0,0,0.1-0.1,0.2-0.1h2.3c0.9,0,1.5,0.2,2,0.5c0.5,0.4,0.7,0.9,0.7,1.7v2.6c0,0.1,0,0.1-0.1,0.2
			c0,0-0.1,0.1-0.2,0.1h-1.5C61.6,8.1,61.6,8,61.5,8z M58.3,8c0,0-0.1-0.1-0.1-0.2V5.4c0-0.1,0-0.1,0.1-0.2c0,0,0.1-0.1,0.2-0.1H60
			c0.1,0,0.1,0,0.2,0.1c0,0,0.1,0.1,0.1,0.2v2.4c0,0.1,0,0.1-0.1,0.2c0,0-0.1,0.1-0.2,0.1h-1.5C58.4,8.1,58.4,8.1,58.3,8z"/>
		<path class="st0" d="M68.9,3.5c0,0.1,0.1,0.1,0.1,0.2l-0.1,1.1c0,0.1,0,0.1-0.1,0.2s-0.1,0.1-0.2,0.1h-0.3C68.1,5.3,68,5.7,68,6.2
			l-0.2,2.2c0,0.1,0,0.1-0.1,0.1s-0.1,0-0.2,0L66,8.4c-0.1,0-0.1,0-0.1-0.1s0-0.1,0-0.1l0.2-2.4c0-0.5,0.1-0.8,0.2-1l-1.8-0.2
			c-0.1,0-0.1,0-0.2-0.1c0-0.1-0.1-0.1-0.1-0.2l0.1-1.1c0-0.1,0-0.1,0.1-0.2s0.1-0.1,0.2-0.1l4.1,0.4C68.8,3.4,68.9,3.4,68.9,3.5z"
			/>
		<path class="st0" d="M68.9,8.5c0-0.1-0.1-0.1,0-0.2l0.2-1.1c0-0.1,0-0.1,0.1-0.2c0.1,0,0.1-0.1,0.2,0l2,0.4l0.3-1.3
			c0.1-0.4-0.1-0.7-0.5-0.8L70,5.1c-0.1,0-0.1,0-0.2-0.1c0-0.1-0.1-0.1,0-0.2L70,3.7c0-0.1,0-0.1,0.1-0.2c0.1,0,0.1-0.1,0.2,0
			l1.3,0.3c0.9,0.2,1.5,0.5,1.9,0.9s0.5,1,0.3,1.9l-0.2,1.3L73.9,8C74,8,74,8,74.1,8.1c0,0.1,0.1,0.1,0,0.2l-0.2,1.1
			c0,0.1,0,0.1-0.1,0.2c-0.1,0-0.1,0.1-0.2,0l-4.3-0.8C69,8.6,69,8.6,68.9,8.5z"/>
		<path class="st0" d="M74.2,9.6c0-0.1,0-0.1,0-0.2l1.2-4.5c0-0.1,0.1-0.1,0.1-0.1c0.1,0,0.1,0,0.2,0l1.6,0.4c0.1,0,0.1,0.1,0.1,0.1
			c0,0.1,0,0.1,0,0.2L76.2,10c0,0.1-0.1,0.1-0.1,0.1c-0.1,0-0.1,0-0.2,0l-1.6-0.4C74.3,9.7,74.2,9.7,74.2,9.6z"/>
		<path class="st0" d="M83.5,7.4c0,0.1,0,0.1,0,0.2l-1,2.6c-0.2,0.6-0.6,1-1.2,1.2c-0.6,0.2-1.3,0.2-2.1,0l-2.5-0.5
			c-0.1,0-0.1-0.1-0.1-0.1c0-0.1,0-0.1,0-0.2l0.4-1c0-0.1,0.1-0.1,0.1-0.1s0.1,0,0.2,0l0.9,0.1L78.5,6c0-0.1,0-0.2,0-0.2
			s0-0.1,0.1-0.1s0.1,0,0.1,0l1.6,0.6c0,0,0.1,0,0.1,0.1v0.1l-0.5,3.4c0.2,0,0.4-0.1,0.5-0.2s0.2-0.3,0.3-0.6L81.5,7
			c0-0.1,0.1-0.1,0.1-0.1s0.1,0,0.2,0l1.4,0.5C83.4,7.3,83.5,7.4,83.5,7.4z"/>
	</g>
	<circle class="st1" cx="60.9" cy="61.6" r="50.6"/>
</g>
</svg>
