<svg id="Layer_1" data-name="Layer 1" xmlns="http://www.w3.org/2000/svg" viewBox="0 0 108.84 109.5"><title>wheatfact_black</title><path d="M8.3,51.2c-.1,0-.1.1-.2,0l-2.6-.5a.62.62,0,0,0-.8.5l-.4,2.3c0,.1,0,.1-.1.2s-.1.1-.2,0l-1.1-.2c-.1,0-.1,0-.2-.1s-.1-.1,0-.2l.4-2.3c.2-.9.4-1.5.9-1.8a1.79,1.79,0,0,1,1.8-.3l2.6.5c.1,0,.1,0,.2.1s.1.1,0,.2l-.3,1.5C8.4,51.1,8.4,51.2,8.3,51.2Zm-.5,3.2c-.1,0-.1.1-.2,0L5.3,54c-.1,0-.1,0-.2-.1s-.1-.1,0-.2l.3-1.5c0-.1,0-.1.1-.2s.1-.1.2,0l2.3.4c.1,0,.1,0,.2.1s.1.1,0,.2l-.3,1.5A.35.35,0,0,1,7.8,54.4Z" transform="translate(-2.66 -2.7)"/><path d="M8.6,48a2.2,2.2,0,0,1-1.8.2l-2.6-.8a.1.1,0,0,1-.1-.1v-.2l.4-1.3a.1.1,0,0,1,.1-.1h.2l2.6.8a.44.44,0,0,0,.5-.1,2.19,2.19,0,0,0,.3-.5.64.64,0,0,0,0-.6c-.1-.2-.2-.3-.4-.3l-.5-.1c-.5-.2-.8-.1-.9.1v.5a.1.1,0,0,1-.1.1H6.1l-1-.3a.32.32,0,0,1-.3-.3,2.81,2.81,0,0,1,.1-.8,1.44,1.44,0,0,1,.6-1,2,2,0,0,1,.8-.4,3,3,0,0,1,1.2.2l.2.1c.1,0,.2.1.3.1s.2.1.3.1a2.11,2.11,0,0,1,1.4,1.2,2.31,2.31,0,0,1,0,2A2.83,2.83,0,0,1,8.6,48Z" transform="translate(-2.66 -2.7)"/><path d="M8.6,42.3H8.4l-2.3-.9a.1.1,0,0,1-.1-.1v-.2l.6-1.5a.1.1,0,0,1,.1-.1h.2l2.3.9a.1.1,0,0,1,.1.1v.2l-.7,1.6Z" transform="translate(-2.66 -2.7)"/><path d="M11.6,40.5h-.2l-4.2-2a.1.1,0,0,1-.1-.1v-.2l1-2.2a6.22,6.22,0,0,1,.8-1.2,1.91,1.91,0,0,1,1-.5,2.72,2.72,0,0,1,1.4.3l2.3,1.1a.1.1,0,0,1,.1.1V36L13,37.4a.1.1,0,0,1-.1.1h-.2l-2.4-1.2a.59.59,0,0,0-.9.3l-.3.5,3,1.4a.1.1,0,0,1,.1.1v.2l-.7,1.4C11.7,40.4,11.7,40.5,11.6,40.5Z" transform="translate(-2.66 -2.7)"/><path d="M15.9,32.5h-.2l-2.2-1.4c-.4-.2-.7-.2-.9.2l-1.2,2c0,.1-.1.1-.2.1H11l-.9-.6c-.1,0-.1-.1-.1-.2v-.2l1.3-2A3.85,3.85,0,0,1,12.8,29a1.82,1.82,0,0,1,1.8.4l2.2,1.4c.1,0,.1.1.1.2v.2l-.8,1.3C16,32.4,16,32.5,15.9,32.5Zm-1.7,2.7H14l-2-1.3c-.1,0-.1-.1-.1-.2v-.2l.8-1.3c0-.1.1-.1.2-.1h.2l2,1.3c.1,0,.1.1.1.2v.2l-.8,1.3C14.3,35.2,14.3,35.2,14.2,35.2Z" transform="translate(-2.66 -2.7)"/><path d="M17.2,23.3a2.9,2.9,0,0,1,1.6.6,2,2,0,0,1,.8,1.2,3.18,3.18,0,0,1,.2,1.4,3.71,3.71,0,0,1-.4,1.4l-.2.3c0,.1-.1.1-.2.1s-.2,0-.2-.1l-1-.8c-.1,0-.1-.1-.1-.2V27l.1-.3a1,1,0,0,0-.4-1.1c-.2-.1-.3-.2-.5-.2a.76.76,0,0,0-.4.2l-1,1.3c0,.1-.1.1-.2.1s-.1,0-.2-.1l-1.9-1.5c-.1,0-.1-.1-.1-.2s0-.1.1-.2l.9-1.1c0-.1.1-.1.2-.1s.1,0,.2.1l.8.6.3-.4A2.68,2.68,0,0,1,17.2,23.3Z" transform="translate(-2.66 -2.7)"/><path d="M21.5,18.1c.1,0,.1,0,.2.1l2,2a2,2,0,0,1,.6,1.6,4.64,4.64,0,0,1-.9,1.9l-1.5,2.1c0,.1-.1.1-.2.1s-.1,0-.2-.1l-.8-.8a.35.35,0,0,1-.1-.2c0-.1,0-.1.1-.2l.5-.7L18,22c-.1-.1-.1-.1-.2-.1l-.1-.1c0-.1,0-.1.1-.1L19,20.5l.1-.1h.1l2.9,1.9a.64.64,0,0,0,0-.6,2.09,2.09,0,0,0-.4-.6l-1.6-1.6a.35.35,0,0,1-.1-.2c0-.1,0-.1.1-.2L21.2,18C21.4,18.2,21.5,18.1,21.5,18.1Z" transform="translate(-2.66 -2.7)"/><path d="M28.4,13.3a1.68,1.68,0,0,1,1.5,1l1.6,2.2c0,.1.1.1,0,.2s0,.1-.1.2l-1.2.9c-.1,0-.1.1-.2,0s-.1,0-.2-.1l-1.6-2.1c-.3-.4-.6-.4-.9-.1l-.4.3a9,9,0,0,0,.5.9l1.5,1.8c0,.1.1.1,0,.2s0,.1-.1.2l-1.9,1.4c-.1,0-.1.1-.2,0s-.1,0-.2-.1l-.6-.8c0-.1-.1-.1,0-.2s0-.1.1-.2l.6-.4-.6-.9a4.05,4.05,0,0,1-.5-.9l-.5.3c-.1,0-.1.1-.2,0s-.1,0-.2-.1l-.6-.9c0-.1-.1-.1,0-.2s0-.1.1-.2L26.4,14A4.8,4.8,0,0,1,28.4,13.3Z" transform="translate(-2.66 -2.7)"/><path d="M35.2,14.3v.2a.1.1,0,0,1-.1.1l-2.8,1.6h-.2a.1.1,0,0,1-.1-.1l-.6-.9V15a.1.1,0,0,1,.1-.1l1.1-.7L31.8,13c-.1-.2-.3-.3-.4-.4s-.3,0-.5.1l-.4.3h-.2a.1.1,0,0,1-.1-.1l-.5-.9v-.2a.1.1,0,0,1,.1-.1l.5-.3a2.86,2.86,0,0,1,2-.6A2.17,2.17,0,0,1,33.8,12Z" transform="translate(-2.66 -2.7)"/><path d="M34.8,12.3c-.1,0-.1-.1,0,0L33.6,10V9.8a.1.1,0,0,1,.1-.1L35.1,9h.2a.1.1,0,0,1,.1.1l1.1,2.2v.2a.1.1,0,0,1-.1.1l-1.4.7Z" transform="translate(-2.66 -2.7)"/><path d="M37.4,11c-.1,0-.1-.1,0,0L36.3,8.6V8.4a.1.1,0,0,1,.1-.1l1.5-.7h.2a.1.1,0,0,1,.1.1l1,2.3v.2a.1.1,0,0,1-.1.1l-1.5.7Z" transform="translate(-2.66 -2.7)"/><path d="M44.1,10.5v.2a.1.1,0,0,1-.1.1l-3,1.1h-.2a.1.1,0,0,1-.1-.1l-.4-1v-.2a.1.1,0,0,1,.1-.1l1.2-.5-.5-1.3c-.1-.2-.2-.4-.3-.4h-.5l-.5.2h-.2a.1.1,0,0,1-.1-.1l-.4-1V7.2a.1.1,0,0,1,.1-.1l.5-.2a3.2,3.2,0,0,1,2.1-.2,2.27,2.27,0,0,1,1.3,1.4Z" transform="translate(-2.66 -2.7)"/><path d="M48.4,4.3a.1.1,0,0,1,.1.1l.7,2.7a1.53,1.53,0,0,1-.3,1.6,3.25,3.25,0,0,1-1.7,1.2l-2.4,1h-.2c-.1,0-.1-.1-.1-.2l-.3-1.1V9.4a.1.1,0,0,1,.1-.1l.8-.4L43.2,5.7c-.1-.1-.1-.1-.1-.2V5.4l.1-.1,1.6-.4h.1A.1.1,0,0,1,45,5l1.6,3.1a.55.55,0,0,0,.3-.5,2,2,0,0,0-.1-.7l-.6-2.1V4.6a.1.1,0,0,1,.1-.1l1.5-.4C48.3,4.2,48.4,4.2,48.4,4.3Z" transform="translate(-2.66 -2.7)"/><path d="M54.8,3.7a2.23,2.23,0,0,1,.8,1.6L56,8v.2c0,.1-.1.1-.2.1l-2.5.4h-.2c-.1,0-.1-.1-.1-.2l-.2-1.1V7.2c0-.1.1-.1.2-.1l.8-.1-.2-1.3a.76.76,0,0,0-.2-.5c-.1-.1-.2-.1-.4-.1l-.5.1-.3,3.3v.2c0,.1-.1.1-.2.1L50.5,9h-.2c-.1,0-.1-.1-.1-.2l.5-3.3-.7.1h-.2c-.1,0-.1-.1-.1-.2l-.2-1.2V4c0-.1.1-.1.2-.1L53,3.4A2.56,2.56,0,0,1,54.8,3.7Z" transform="translate(-2.66 -2.7)"/><path d="M61.5,8a.35.35,0,0,1-.1-.2V5.1a.63.63,0,0,0-.7-.7H58.4c-.1,0-.1,0-.2-.1s-.1-.1-.1-.2V3c0-.1,0-.1.1-.2a.35.35,0,0,1,.2-.1h2.3a3.68,3.68,0,0,1,2,.5,1.94,1.94,0,0,1,.7,1.7V7.5c0,.1,0,.1-.1.2a.35.35,0,0,1-.2.1H61.6C61.6,8.1,61.6,8,61.5,8ZM58.3,8a.35.35,0,0,1-.1-.2V5.4c0-.1,0-.1.1-.2a.35.35,0,0,1,.2-.1H60c.1,0,.1,0,.2.1a.35.35,0,0,1,.1.2V7.8c0,.1,0,.1-.1.2a.35.35,0,0,1-.2.1H58.5C58.4,8.1,58.4,8.1,58.3,8Z" transform="translate(-2.66 -2.7)"/><path d="M68.9,3.5c0,.1.1.1.1.2l-.1,1.1c0,.1,0,.1-.1.2s-.1.1-.2.1h-.3A1.61,1.61,0,0,0,68,6.2l-.2,2.2c0,.1,0,.1-.1.1h-.2L66,8.4c-.1,0-.1,0-.1-.1V8.2l.2-2.4a2.15,2.15,0,0,1,.2-1l-1.8-.2c-.1,0-.1,0-.2-.1s-.1-.1-.1-.2l.1-1.1c0-.1,0-.1.1-.2s.1-.1.2-.1l4.1.4C68.8,3.4,68.9,3.4,68.9,3.5Z" transform="translate(-2.66 -2.7)"/><path d="M68.9,8.5c0-.1-.1-.1,0-.2l.2-1.1c0-.1,0-.1.1-.2s.1-.1.2,0l2,.4.3-1.3a.62.62,0,0,0-.5-.8L70,5.1c-.1,0-.1,0-.2-.1s-.1-.1,0-.2L70,3.7c0-.1,0-.1.1-.2s.1-.1.2,0l1.3.3a3.74,3.74,0,0,1,1.9.9,1.93,1.93,0,0,1,.3,1.9l-.2,1.3.3.1c.1,0,.1,0,.2.1s.1.1,0,.2l-.2,1.1c0,.1,0,.1-.1.2s-.1.1-.2,0l-4.3-.8A1.87,1.87,0,0,1,68.9,8.5Z" transform="translate(-2.66 -2.7)"/><path d="M74.2,9.6V9.4l1.2-4.5a.1.1,0,0,1,.1-.1h.2l1.6.4a.1.1,0,0,1,.1.1v.2L76.2,10a.1.1,0,0,1-.1.1h-.2l-1.6-.4A.1.1,0,0,1,74.2,9.6Z" transform="translate(-2.66 -2.7)"/><path d="M83.5,7.4v.2l-1,2.6a1.8,1.8,0,0,1-1.2,1.2,3.73,3.73,0,0,1-2.1,0l-2.5-.5a.1.1,0,0,1-.1-.1v-.2l.4-1a.1.1,0,0,1,.1-.1h.2l.9.1L78.5,6V5.8a.1.1,0,0,1,.1-.1h.1l1.6.6a.1.1,0,0,1,.1.1v.1l-.5,3.4a.76.76,0,0,0,.5-.2,1.63,1.63,0,0,0,.3-.6L81.5,7a.1.1,0,0,1,.1-.1h.2l1.4.5C83.4,7.3,83.5,7.4,83.5,7.4Z" transform="translate(-2.66 -2.7)"/><circle cx="58.24" cy="58.9" r="50.6"/></svg>